#N canvas -1226 323 450 300 10;
#X obj 72 83 passthrough-abs 1 one;
#X floatatom 195 58 5 0 0 0 - - -;
#X obj 72 184 list trim;
#X obj 72 205 print output;
#X obj 201 203 print passed;
#X msg 232 57 all;
#X obj 72 110 passthrough-abs 2 two;
#X obj 72 134 passthrough-abs 3 three;
#X obj 72 161 passthrough-abs 4 four;
#X connect 0 0 6 0;
#X connect 0 1 6 1;
#X connect 1 0 0 1;
#X connect 2 0 3 0;
#X connect 5 0 0 1;
#X connect 6 0 7 0;
#X connect 6 1 7 1;
#X connect 7 0 8 0;
#X connect 7 1 8 1;
#X connect 8 0 2 0;
#X connect 8 1 4 0;
