#N canvas -816 242 539 345 10;
#X obj 153 98 inlet;
#X obj 272 98 inlet;
#X obj 272 182 outlet;
#X obj 153 209 outlet;
#X obj 189 174 symbol \$2;
#X obj 189 136 route all \$1;
#X connect 0 0 3 0;
#X connect 1 0 5 0;
#X connect 1 0 2 0;
#X connect 4 0 3 0;
#X connect 5 0 4 0;
#X connect 5 1 4 0;
