#N struct struct1 float a symbol b;
#N canvas -1353 196 771 515 10;
#X obj 579 164 pointer;
#X msg 539 137 next;
#X msg 579 111 traverse pd-datawindow1;
#X obj 635 163 bng 15 250 50 0 empty empty empty 17 7 0 10 -262144
-1 -1;
#N canvas 0 0 450 300 datawindow1 0;
#X scalar struct1 1 symbol \;;
#X scalar struct1 2 symbol \;;
#X scalar struct1 3 symbol \;;
#X scalar struct1 4 symbol \;;
#X scalar struct1 5 symbol \;;
#X scalar struct1 6 symbol \;;
#X scalar struct1 7 symbol \;;
#X scalar struct1 1 symbol \;;
#X scalar struct1 2 symbol \;;
#X scalar struct1 3 blah \;;
#X scalar struct1 4 symbol \;;
#X scalar struct1 5 symbol \;;
#X scalar struct1 6 tsttest \;;
#X scalar struct1 7 symbol \;;
#X scalar struct1 0 symbol \;;
#X scalar struct1 0 symbol \;;
#X scalar struct1 0 symbol \;;
#X scalar struct1 0 symbol \;;
#X scalar struct1 0 symbol \;;
#X scalar struct1 0 symbol \;;
#X scalar struct1 0 symbol \;;
#X scalar struct1 0 symbol \;;
#X scalar struct1 0 symbol \;;
#X scalar struct1 0 symbol \;;
#X scalar struct1 0 symbol \;;
#X scalar struct1 0 symbol \;;
#X scalar struct1 0 symbol \;;
#X scalar struct1 0 symbol \;;
#X scalar struct1 0 symbol \;;
#X scalar struct1 0 symbol \;;
#X scalar struct1 0 symbol \;;
#X scalar struct1 0 symbol \;;
#X scalar struct1 0 symbol \;;
#X scalar struct1 0 symbol \;;
#X scalar struct1 0 symbol \;;
#X scalar struct1 0 symbol \;;
#X scalar struct1 0 symbol \;;
#X scalar struct1 0 symbol \;;
#X scalar struct1 0 symbol \;;
#X scalar struct1 0 symbol \;;
#X scalar struct1 0 symbol \;;
#X restore 31 146 pd datawindow1;
#X msg 30 186 \; pd-datawindow1 clear;
#N canvas 0 260 450 300 template1 1;
#X obj 125 73 struct struct1 float a symbol b;
#X restore 31 115 pd template1;
#X floatatom 520 57 5 0 0 0 - - -;
#X obj 520 82 t b f b;
#X obj 539 111 until;
#X obj 520 191 pointer;
#X obj 217 387 pointer;
#X msg 177 360 next;
#X msg 217 334 traverse pd-datawindow1;
#X obj 273 386 bng 15 250 50 0 empty empty empty 17 7 0 10 -262144
-1 -1;
#X floatatom 158 280 5 0 0 0 - - -;
#X obj 158 305 t b f b;
#X obj 177 334 until;
#X obj 158 414 pointer;
#X symbolatom 83 384 10 0 0 0 - - -;
#X floatatom 520 247 5 0 0 0 - - -;
#X obj 83 446 set -symbol struct1 b;
#X obj 520 217 get struct1 a b;
#X symbolatom 607 248 10 0 0 0 - - -;
#X obj 336 230 pointer;
#X floatatom 267 236 5 0 0 0 - - -;
#X msg 336 174 traverse pd-datawindow1;
#X obj 267 259 append struct1 a;
#X obj 336 199 t b a;
#X msg 378 198 next;
#X obj 231 181 until;
#X obj 231 207 f;
#X obj 267 206 + 1;
#X msg 266 158 0;
#X obj 231 135 t f b b;
#X msg 231 105 20;
#X connect 0 0 10 1;
#X connect 0 1 3 0;
#X connect 1 0 0 0;
#X connect 2 0 0 0;
#X connect 3 0 9 1;
#X connect 7 0 8 0;
#X connect 8 0 10 0;
#X connect 8 1 9 0;
#X connect 8 2 2 0;
#X connect 9 0 1 0;
#X connect 10 0 22 0;
#X connect 11 0 18 1;
#X connect 11 1 14 0;
#X connect 12 0 11 0;
#X connect 13 0 11 0;
#X connect 14 0 17 1;
#X connect 15 0 16 0;
#X connect 16 0 18 0;
#X connect 16 1 17 0;
#X connect 16 2 13 0;
#X connect 17 0 12 0;
#X connect 18 0 21 1;
#X connect 19 0 21 0;
#X connect 22 0 20 0;
#X connect 22 1 23 0;
#X connect 24 0 27 1;
#X connect 25 0 27 0;
#X connect 26 0 28 0;
#X connect 28 0 24 0;
#X connect 28 1 24 0;
#X connect 29 0 24 0;
#X connect 30 0 31 0;
#X connect 31 0 32 0;
#X connect 32 0 31 1;
#X connect 32 0 25 0;
#X connect 33 0 31 1;
#X connect 34 0 30 0;
#X connect 34 1 33 0;
#X connect 34 2 26 0;
#X connect 35 0 34 0;
