#N canvas -1736 200 772 574 10;
#X obj 82 183 list split 1;
#X obj 140 208 list;
#X obj 238 210 + 1;
#X msg 223 186 0;
#X obj 208 210 i 0;
#X obj 109 238 t f b;
#X obj 82 207 t b f;
#X obj 204 156 t l b l;
#X obj 294 192 list length;
#X obj 516 191 + 1;
#X obj 486 191 i 0;
#X obj 516 267 sel;
#X msg 516 290 0;
#X obj 516 220 t f b f;
#X obj 294 250 s sequence;
#X msg 294 224 resize \$1;
#X obj 204 115 erhythms;
#X obj 105 334 table \$0-sequence;
#X obj 204 50 inlet;
#X obj 249 51 inlet;
#X obj 486 365 outlet;
#X obj 486 314 tabread \$0-sequence;
#X obj 109 285 tabwrite \$0-sequence;
#X obj 364 224 v \$0-seqlength;
#X obj 543 241 v \$0-seqlength;
#X obj 486 132 inlet;
#X obj 553 132 inlet;
#X obj 486 161 t b;
#X obj 553 159 t f;
#X obj 486 339 sel 1;
#X connect 0 0 6 0;
#X connect 0 1 1 1;
#X connect 1 0 0 0;
#X connect 2 0 4 1;
#X connect 3 0 4 1;
#X connect 4 0 2 0;
#X connect 4 0 22 1;
#X connect 5 0 22 0;
#X connect 5 1 4 0;
#X connect 6 0 1 0;
#X connect 6 1 5 0;
#X connect 7 0 0 0;
#X connect 7 1 3 0;
#X connect 7 2 8 0;
#X connect 8 0 15 0;
#X connect 8 0 23 0;
#X connect 9 0 13 0;
#X connect 10 0 9 0;
#X connect 10 0 21 0;
#X connect 11 0 12 0;
#X connect 12 0 10 1;
#X connect 13 0 11 0;
#X connect 13 1 24 0;
#X connect 13 2 10 1;
#X connect 15 0 14 0;
#X connect 16 0 7 0;
#X connect 18 0 16 0;
#X connect 19 0 16 1;
#X connect 21 0 29 0;
#X connect 24 0 11 1;
#X connect 25 0 27 0;
#X connect 26 0 28 0;
#X connect 27 0 10 0;
#X connect 28 0 10 1;
#X connect 29 0 20 0;
