#N canvas -712 237 363 315 10;
#X obj 121 102 until;
#X obj 121 147 list;
#X obj 102 45 inlet;
#X obj 182 45 inlet;
#X obj 121 125 i \$1;
#X obj 121 169 t l;
#X obj 102 80 t b f b;
#X obj 102 193 list;
#X obj 102 227 outlet;
#X connect 0 0 4 0;
#X connect 1 0 5 0;
#X connect 2 0 6 0;
#X connect 3 0 4 1;
#X connect 4 0 1 0;
#X connect 5 0 1 1;
#X connect 5 0 7 1;
#X connect 6 0 7 0;
#X connect 6 1 0 0;
#X connect 6 2 1 1;
#X connect 6 2 7 1;
#X connect 7 0 8 0;
