#N canvas 309 105 784 515 10;
#X obj 630 244 list prepend;
#X obj 630 270 t a;
#X obj 609 294 list;
#X obj 609 196 t b b;
#X obj 136 73 list;
#X obj 49 48 t a b;
#X obj 609 175 r \$0-done;
#X obj 630 221 r \$0-elout;
#X obj 49 95 s \$0-mainlist;
#X obj 136 95 s \$0-sublist;
#X obj 609 315 print out;
#X obj 276 96 list;
#X obj 449 98 list;
#X obj 457 77 list split 1;
#X obj 283 52 r \$0-mainlist;
#X obj 457 53 r \$0-sublist;
#X obj 283 76 list split 1;
#X obj 276 31 r \$0-get-next-mainel;
#X obj 448 31 r \$0-get-next-subel;
#X obj 283 118 s \$0-next-mainel;
#X obj 457 121 s \$0-next-subel;
#X obj 205 241 list append;
#X obj 244 284 s \$0-elout;
#X obj 205 201 r \$0-next-mainel;
#X obj 268 221 r \$0-next-subel;
#X obj 205 263 t b b a;
#X obj 205 324 s \$0-get-next-mainel;
#X obj 224 304 s \$0-get-next-subel;
#X obj 276 163 s \$0-done;
#X obj 276 141 route bang;
#X msg 49 26 1 2 3 4 5;
#X msg 157 51 a b c;
#X connect 0 0 1 0;
#X connect 1 0 0 1;
#X connect 1 0 2 1;
#X connect 2 0 10 0;
#X connect 3 0 2 0;
#X connect 3 1 0 1;
#X connect 4 0 9 0;
#X connect 5 0 8 0;
#X connect 5 1 4 0;
#X connect 6 0 3 0;
#X connect 7 0 0 0;
#X connect 11 0 16 0;
#X connect 11 0 29 0;
#X connect 12 0 13 0;
#X connect 13 0 20 0;
#X connect 13 1 12 1;
#X connect 14 0 16 0;
#X connect 15 0 13 0;
#X connect 16 0 19 0;
#X connect 16 1 11 1;
#X connect 17 0 11 0;
#X connect 18 0 12 0;
#X connect 21 0 25 0;
#X connect 23 0 21 0;
#X connect 24 0 21 1;
#X connect 25 0 26 0;
#X connect 25 1 27 0;
#X connect 25 2 22 0;
#X connect 29 0 28 0;
#X connect 30 0 5 0;
#X connect 31 0 4 1;
