#N canvas 177 99 697 458 10;
#X obj 124 251 print main;
#X obj 61 152 list;
#X obj 97 168 t b a;
#X msg 54 55 1 2 3 4 5 6 7;
#X msg 150 54 1 2 3 4 5 6;
#X obj 214 308 bng 15 250 50 0 empty empty empty 17 7 0 10 -262144
-1 -1;
#X obj 193 237 s \$0-done;
#X obj 166 169 t b a;
#X obj 214 283 r \$0-done;
#X obj 421 219 route bang;
#X obj 505 284 print output;
#X obj 387 187 list;
#X obj 421 161 list split 1;
#X floatatom 490 137 5 0 0 0 - - -;
#X obj 387 71 r \$0-get-next-el;
#X obj 478 305 s \$0-get-next-el;
#X msg 421 104 1 2 3 4 5 6 7;
#X obj 421 240 print done;
#X obj 490 181 t a b;
#X obj 478 263 t b a;
#X obj 97 144 list split 1;
#X obj 196 208 route bang;
#X connect 1 0 20 0;
#X connect 2 0 1 0;
#X connect 2 1 0 0;
#X connect 3 0 20 0;
#X connect 4 0 20 0;
#X connect 7 0 6 0;
#X connect 7 1 21 0;
#X connect 8 0 5 0;
#X connect 9 0 17 0;
#X connect 9 1 19 0;
#X connect 11 0 12 0;
#X connect 12 0 9 0;
#X connect 12 1 11 1;
#X connect 12 2 18 0;
#X connect 13 0 12 1;
#X connect 14 0 11 0;
#X connect 16 0 12 0;
#X connect 18 0 9 0;
#X connect 18 1 11 1;
#X connect 19 0 15 0;
#X connect 19 1 10 0;
#X connect 20 0 2 0;
#X connect 20 1 1 1;
#X connect 20 2 7 0;
#X connect 21 1 0 0;
