#N canvas -958 308 784 456 10;
#X obj 246 103 list;
#X obj 419 105 list;
#X obj 622 259 list prepend;
#X obj 221 222 list append;
#X obj 622 285 t a;
#X obj 601 309 list;
#X obj 601 211 t b b;
#X obj 117 72 list;
#X obj 30 47 t a b;
#X obj 427 84 list split 1;
#X obj 221 289 s \$0-done;
#X obj 601 190 r \$0-done;
#X obj 317 288 s \$0-elout;
#X obj 622 236 r \$0-elout;
#X obj 253 59 r \$0-mainlist;
#X obj 30 94 s \$0-mainlist;
#X obj 427 60 r \$0-sublist;
#X obj 117 94 s \$0-sublist;
#X obj 601 357 print out;
#X obj 253 83 list split 1;
#X floatatom 351 59 5 0 0 0 - - -;
#X floatatom 523 64 5 0 0 0 - - -;
#X obj 246 38 r \$0-get-next-mainel;
#X obj 419 38 r \$0-get-next-subel;
#X obj 253 125 s \$0-next-mainel;
#X obj 427 127 s \$0-next-subel;
#X obj 221 182 r \$0-next-mainel;
#X obj 284 202 r \$0-next-subel;
#X obj 221 244 route bang;
#X obj 278 267 t b b a;
#X obj 278 328 s \$0-get-next-mainel;
#X obj 297 308 s \$0-get-next-subel;
#X msg 138 50 a b c d e f;
#X obj 322 103 t a b;
#X obj 496 105 t a b;
#X msg 30 25 1 2 3 4 5;
#X connect 0 0 19 0;
#X connect 1 0 9 0;
#X connect 2 0 4 0;
#X connect 3 0 28 0;
#X connect 4 0 2 1;
#X connect 4 0 5 1;
#X connect 5 0 18 0;
#X connect 6 0 5 0;
#X connect 6 1 2 1;
#X connect 7 0 17 0;
#X connect 8 0 15 0;
#X connect 8 1 7 0;
#X connect 9 0 25 0;
#X connect 9 1 1 1;
#X connect 9 2 34 0;
#X connect 11 0 6 0;
#X connect 13 0 2 0;
#X connect 14 0 19 0;
#X connect 16 0 9 0;
#X connect 19 0 24 0;
#X connect 19 1 0 1;
#X connect 19 2 33 0;
#X connect 20 0 19 1;
#X connect 21 0 9 1;
#X connect 22 0 0 0;
#X connect 23 0 1 0;
#X connect 26 0 3 0;
#X connect 27 0 3 1;
#X connect 28 0 10 0;
#X connect 28 1 29 0;
#X connect 29 0 30 0;
#X connect 29 1 31 0;
#X connect 29 2 12 0;
#X connect 32 0 7 1;
#X connect 33 0 24 0;
#X connect 33 1 0 1;
#X connect 34 0 25 0;
#X connect 34 1 1 1;
#X connect 35 0 8 0;
