#N canvas -1610 369 442 284 10;
#X obj 42 43 inlet;
#X msg 84 131 12;
#X msg 124 131 13;
#X msg 164 131 15;
#X msg 204 131 29;
#X msg 244 131 63;
#X msg 284 131 62;
#X msg 324 131 28;
#X msg 364 131 60;
#X obj 84 156 i;
#X obj 160 41 loadbang;
#X obj 149 62 symbol \$1;
#X obj 149 20 inlet;
#X obj 42 184 *;
#X obj 42 209 outlet;
#X obj 149 106 route off rl rf al af y gl gf;
#X obj 149 84 list trim;
#X connect 0 0 13 0;
#X connect 1 0 9 0;
#X connect 2 0 9 0;
#X connect 3 0 9 0;
#X connect 4 0 9 0;
#X connect 5 0 9 0;
#X connect 6 0 9 0;
#X connect 7 0 9 0;
#X connect 8 0 9 0;
#X connect 9 0 13 1;
#X connect 10 0 11 0;
#X connect 11 0 16 0;
#X connect 12 0 11 0;
#X connect 13 0 14 0;
#X connect 15 0 1 0;
#X connect 15 1 2 0;
#X connect 15 2 3 0;
#X connect 15 3 4 0;
#X connect 15 4 5 0;
#X connect 15 5 6 0;
#X connect 15 6 7 0;
#X connect 15 7 8 0;
#X connect 16 0 15 0;
