#N canvas -1474 241 922 581 10;
#X obj 235 174 % 8;
#X obj 262 174 / 16;
#X obj 262 196 i;
#X obj 235 152 t f f;
#X obj 235 219 pack f f f;
#X obj 235 504 noteout;
#X obj 250 455 * 16;
#X obj 235 478 +;
#X obj 131 444 * 16;
#X obj 131 468 + 8;
#X obj 131 503 noteout;
#X obj 131 415 unpack;
#X obj 235 432 unpack f f f;
#X obj 464 488 ctlout;
#X obj 464 381 r resetgrid;
#X obj 50 250 print mode;
#X obj 163 270 print grid;
#X obj 41 22 notein 1;
#X obj 402 51 ctlin;
#X obj 429 72 == 1;
#X obj 415 113 spigot;
#X obj 402 93 spigot;
#X obj 402 138 swap;
#X obj 423 182 > 0;
#X obj 402 205 pack;
#X obj 402 228 print ctl;
#X obj 402 161 - 104;
#X obj 41 64 pack f f;
#X obj 41 91 route 8 24 40 56 72 88 104 120;
#X msg 41 115 0 \$1;
#X msg 63 138 1 \$1;
#X msg 85 116 2 \$1;
#X msg 107 138 3 \$1;
#X msg 129 115 4 \$1;
#X msg 151 138 5 \$1;
#X msg 173 115 6 \$1;
#X msg 195 138 7 \$1;
#X obj 86 43 > 0;
#X obj 235 131 unpack f f;
#X obj 127 192 t l;
#X obj 624 93 unpack f f f;
#X obj 624 154 pack f f f;
#X obj 693 122 clr gf;
#X obj 624 61 r grid-in;
#X obj 624 185 s grid-out;
#X obj 242 256 s grid-in;
#X obj 132 229 s mode-in;
#X obj 369 254 s ctl-in;
#X obj 235 402 r grid-out;
#X obj 131 389 r mode-out;
#X obj 364 501 ctlout;
#X obj 364 368 r ctl-out;
#X obj 385 433 + 104;
#X obj 364 411 swap;
#X obj 364 390 unpack f f;
#X obj 385 455 t f b;
#X msg 497 466 0;
#X msg 397 479 1;
#X obj 464 444 t f f b;
#X msg 464 423 0;
#X obj 464 401 t b;
#X obj 628 364 r ctl-in;
#X obj 628 396 unpack f f;
#X obj 628 452 pack f f;
#X obj 628 479 s ctl-out;
#X obj 671 275 clr gf;
#X obj 626 247 unpack f f;
#X obj 626 303 pack f f;
#X obj 626 330 s mode-out;
#X obj 626 215 r mode-in;
#X obj 673 424 clr rf;
#X connect 0 0 4 0;
#X connect 1 0 2 0;
#X connect 2 0 4 1;
#X connect 3 0 0 0;
#X connect 3 1 1 0;
#X connect 4 0 16 0;
#X connect 4 0 45 0;
#X connect 6 0 7 1;
#X connect 7 0 5 0;
#X connect 8 0 9 0;
#X connect 9 0 10 0;
#X connect 11 0 8 0;
#X connect 11 1 10 1;
#X connect 12 0 7 0;
#X connect 12 1 6 0;
#X connect 12 2 5 1;
#X connect 14 0 60 0;
#X connect 17 0 27 0;
#X connect 17 1 37 0;
#X connect 18 0 21 0;
#X connect 18 1 20 0;
#X connect 18 2 19 0;
#X connect 19 0 20 1;
#X connect 19 0 21 1;
#X connect 20 0 22 1;
#X connect 21 0 22 0;
#X connect 22 0 26 0;
#X connect 22 1 23 0;
#X connect 23 0 24 1;
#X connect 24 0 25 0;
#X connect 24 0 47 0;
#X connect 26 0 24 0;
#X connect 27 0 28 0;
#X connect 28 0 29 0;
#X connect 28 1 30 0;
#X connect 28 2 31 0;
#X connect 28 3 32 0;
#X connect 28 4 33 0;
#X connect 28 5 34 0;
#X connect 28 6 35 0;
#X connect 28 7 36 0;
#X connect 28 8 38 0;
#X connect 29 0 39 0;
#X connect 30 0 39 0;
#X connect 31 0 39 0;
#X connect 32 0 39 0;
#X connect 33 0 39 0;
#X connect 34 0 39 0;
#X connect 35 0 39 0;
#X connect 36 0 39 0;
#X connect 37 0 27 1;
#X connect 38 0 3 0;
#X connect 38 1 4 2;
#X connect 39 0 15 0;
#X connect 39 0 46 0;
#X connect 40 0 41 0;
#X connect 40 1 41 1;
#X connect 40 2 42 0;
#X connect 41 0 44 0;
#X connect 42 0 41 2;
#X connect 43 0 40 0;
#X connect 48 0 12 0;
#X connect 49 0 11 0;
#X connect 51 0 54 0;
#X connect 52 0 55 0;
#X connect 53 0 50 0;
#X connect 53 1 52 0;
#X connect 54 0 53 0;
#X connect 54 1 53 1;
#X connect 55 0 50 1;
#X connect 55 1 57 0;
#X connect 56 0 13 2;
#X connect 57 0 50 2;
#X connect 58 0 13 0;
#X connect 58 1 13 1;
#X connect 58 2 56 0;
#X connect 59 0 58 0;
#X connect 60 0 59 0;
#X connect 61 0 62 0;
#X connect 62 0 63 0;
#X connect 62 1 70 0;
#X connect 63 0 64 0;
#X connect 65 0 67 1;
#X connect 66 0 67 0;
#X connect 66 1 65 0;
#X connect 67 0 68 0;
#X connect 69 0 66 0;
#X connect 70 0 63 1;
