#N struct struct1 float a array array1 testarray;
#N struct testarray float y;
#N canvas -1654 304 765 487 10;
#N canvas -1048 468 450 300 template1-array 0;
#X obj 61 49 struct testarray float y;
#X restore 43 104 pd template1-array;
#X floatatom 394 308 5 0 0 0 - - -;
#X floatatom 206 250 5 0 0 0 - - -;
#X floatatom 83 284 5 0 0 0 - - -;
#X obj 292 355 pointer;
#X msg 298 324 bang;
#X floatatom 292 409 5 0 0 0 - - -;
#N canvas -1521 488 450 280 template1 0;
#X obj 61 49 struct struct1 float a array array1 testarray;
#X restore 43 47 pd template1;
#N canvas 0 0 450 300 datawindow 0;
#X scalar struct1 1 \; 0 \; 0 \; 0 \; 0 \; 0 \; 0 \; 0 \; 0 \; 0 \;
0 \; 0 \; 0 \; 0 \; 0 \; 0 \; 0 \; 0 \; 0 \; 0 \; 0 \; 0 \; 0 \; \;
;
#X restore 42 148 pd datawindow;
#X obj 525 161 append struct1 a;
#X obj 600 140 pointer;
#X obj 600 109 t b a;
#X obj 525 34 loadbang;
#X msg 525 55 1;
#X obj 525 80 t f b b;
#X obj 371 247 pointer;
#X msg 600 84 traverse pd-datawindow;
#X msg 371 213 traverse pd-datawindow \, next;
#X msg 622 36 \; pd-datawindow clear;
#X obj 394 344 setsize struct1 array1;
#X obj 206 282 element struct1 array1;
#X obj 83 341 set testarray y;
#X obj 292 380 get testarray y;
#X obj 561 326 getsize struct1 array1;
#X floatatom 561 365 5 0 0 0 - - -;
#X connect 1 0 19 0;
#X connect 2 0 20 0;
#X connect 3 0 21 0;
#X connect 4 0 22 0;
#X connect 5 0 4 0;
#X connect 10 0 9 1;
#X connect 11 0 10 0;
#X connect 11 1 10 0;
#X connect 12 0 13 0;
#X connect 13 0 14 0;
#X connect 14 0 9 0;
#X connect 14 1 16 0;
#X connect 14 2 18 0;
#X connect 15 0 19 1;
#X connect 15 0 20 1;
#X connect 15 0 23 0;
#X connect 16 0 11 0;
#X connect 17 0 15 0;
#X connect 20 0 4 0;
#X connect 20 0 21 1;
#X connect 22 0 6 0;
#X connect 23 0 24 0;
