#N canvas -1191 85 1233 847 10;
#X obj 781 354 min;
#X obj 43 567 outlet;
#X obj 63 31 inlet;
#X obj 78 331 s \$0-mainlist;
#X obj 362 22 inlet;
#X obj 389 66 list length;
#X obj 362 46 t l l;
#X obj 801 677 list split;
#X obj 389 127 /;
#X obj 389 147 i;
#X obj 416 127 %;
#X obj 416 147 > 0;
#X obj 389 168 +;
#X obj 858 656 *;
#X obj 801 719 s \$0-subout;
#X obj 829 698 s \$0-excessout;
#X obj 801 629 list;
#X obj 543 671 list split;
#X obj 600 650 *;
#X obj 571 692 s \$0-excessout;
#X obj 543 623 list;
#X obj 63 351 s \$0-output;
#X obj 541 28 inlet;
#X obj 322 466 r \$0-excessout;
#X obj 358 576 outlet;
#X obj 224 461 r \$0-subout;
#X obj 543 713 s \$0-mainout;
#X obj 43 430 r \$0-mainout;
#X obj 63 251 t b l b b b;
#X obj 126 271 s \$0-reset;
#X obj 358 514 list;
#X obj 322 489 route bang;
#X obj 393 489 r \$0-reset;
#X obj 601 334 >;
#X obj 541 52 v \$0-subellen;
#X obj 211 17 inlet;
#X obj 211 41 v \$0-mainellen;
#X obj 602 269 t b b;
#X obj 389 189 v \$0-sublistlen;
#X obj 389 86 t f f b;
#X obj 428 106 v \$0-subellen;
#X obj 532 303 v \$0-mainlistlen;
#X obj 641 299 v \$0-sublistlen;
#X obj 601 357 sel 1 0;
#X obj 604 425 v \$0-remellen;
#X obj 642 388 v \$0-subellen;
#X obj 538 388 v \$0-mainellen;
#X obj 90 79 list length;
#X obj 63 59 t l l;
#X obj 90 139 /;
#X obj 90 159 i;
#X obj 117 139 %;
#X obj 117 159 > 0;
#X obj 90 180 +;
#X obj 90 201 v \$0-mainlistlen;
#X obj 90 99 t f f b;
#X obj 129 119 v \$0-mainellen;
#X obj 362 218 s \$0-sublist;
#X obj 796 332 v \$0-sublistlen;
#X obj 781 311 v \$0-mainlistlen;
#X obj 781 286 t b b;
#X obj 822 593 r \$0-sublist;
#X obj 564 587 r \$0-mainlist;
#X obj 543 505 t b b;
#X obj 543 480 r \$0-output;
#X obj 421 626 outlet;
#X obj 358 539 t l b;
#X obj 428 588 v \$0-remellen;
#X obj 224 602 outlet;
#X obj 287 652 outlet;
#X obj 224 565 t l b;
#X obj 71 520 v \$0-mainellen;
#X obj 138 556 outlet;
#X obj 602 243 r \$0-remellencalc;
#X obj 781 260 r \$0-splitlencalc;
#X obj 110 291 s \$0-splitlencalc;
#X obj 94 311 s \$0-remellencalc;
#X floatatom 248 125 5 0 0 0 - - -;
#X floatatom 204 200 5 0 0 0 - - -;
#X floatatom 536 106 5 0 0 0 - - -;
#X floatatom 513 182 5 0 0 0 - - -;
#X floatatom 538 358 5 0 0 0 - - -;
#X floatatom 876 385 5 0 0 0 - - -;
#X floatatom 637 672 5 0 0 0 - - -;
#X obj 781 377 v \$0-splitlen;
#X obj 543 564 t l b b;
#X obj 600 608 v \$0-splitlen;
#X obj 615 629 v \$0-mainellen;
#X obj 858 614 v \$0-splitlen;
#X obj 873 635 v \$0-subellen;
#X obj 801 572 t l b b;
#X floatatom 898 678 5 0 0 0 - - -;
#X obj 295 613 v \$0-subellen;
#X obj 224 532 list;
#X obj 43 479 t l b b b;
#X connect 0 0 82 0;
#X connect 0 0 84 0;
#X connect 2 0 48 0;
#X connect 4 0 6 0;
#X connect 5 0 39 0;
#X connect 5 0 79 0;
#X connect 6 0 57 0;
#X connect 6 1 5 0;
#X connect 7 0 14 0;
#X connect 7 1 15 0;
#X connect 7 2 14 0;
#X connect 8 0 9 0;
#X connect 9 0 12 0;
#X connect 10 0 11 0;
#X connect 11 0 12 1;
#X connect 12 0 38 0;
#X connect 12 0 80 0;
#X connect 13 0 7 1;
#X connect 13 0 91 0;
#X connect 16 0 7 0;
#X connect 17 0 26 0;
#X connect 17 1 19 0;
#X connect 17 2 26 0;
#X connect 18 0 17 1;
#X connect 18 0 83 0;
#X connect 20 0 17 0;
#X connect 22 0 34 0;
#X connect 23 0 31 0;
#X connect 25 0 93 1;
#X connect 27 0 94 0;
#X connect 28 0 21 0;
#X connect 28 1 3 0;
#X connect 28 2 76 0;
#X connect 28 3 75 0;
#X connect 28 4 29 0;
#X connect 30 0 66 0;
#X connect 31 1 30 1;
#X connect 32 0 30 1;
#X connect 33 0 43 0;
#X connect 33 0 81 0;
#X connect 35 0 36 0;
#X connect 37 0 41 0;
#X connect 37 1 42 0;
#X connect 39 0 8 0;
#X connect 39 1 10 0;
#X connect 39 2 40 0;
#X connect 40 0 10 1;
#X connect 40 0 8 1;
#X connect 41 0 33 0;
#X connect 42 0 33 1;
#X connect 43 0 46 0;
#X connect 43 1 45 0;
#X connect 45 0 44 0;
#X connect 46 0 44 0;
#X connect 47 0 55 0;
#X connect 47 0 77 0;
#X connect 48 0 28 0;
#X connect 48 1 47 0;
#X connect 49 0 50 0;
#X connect 50 0 53 0;
#X connect 51 0 52 0;
#X connect 52 0 53 1;
#X connect 53 0 54 0;
#X connect 53 0 78 0;
#X connect 55 0 49 0;
#X connect 55 1 51 0;
#X connect 55 2 56 0;
#X connect 56 0 51 1;
#X connect 56 0 49 1;
#X connect 58 0 0 1;
#X connect 59 0 0 0;
#X connect 60 0 59 0;
#X connect 60 1 58 0;
#X connect 61 0 16 1;
#X connect 62 0 20 1;
#X connect 63 0 85 0;
#X connect 63 1 90 0;
#X connect 64 0 63 0;
#X connect 66 0 24 0;
#X connect 66 1 67 0;
#X connect 67 0 65 0;
#X connect 70 0 68 0;
#X connect 70 1 92 0;
#X connect 71 0 72 0;
#X connect 73 0 37 0;
#X connect 74 0 60 0;
#X connect 85 0 20 0;
#X connect 85 1 86 0;
#X connect 85 2 87 0;
#X connect 86 0 18 0;
#X connect 87 0 18 1;
#X connect 88 0 13 0;
#X connect 89 0 13 1;
#X connect 90 0 16 0;
#X connect 90 1 88 0;
#X connect 90 2 89 0;
#X connect 92 0 69 0;
#X connect 93 0 70 0;
#X connect 94 0 1 0;
#X connect 94 1 71 0;
#X connect 94 2 93 0;
#X connect 94 3 30 0;
