#N canvas -1389 303 571 352 10;
#X obj 96 23 inlet;
#X msg 49 167 12;
#X msg 89 167 13;
#X msg 129 167 15;
#X msg 169 167 29;
#X msg 209 167 63;
#X msg 249 167 62;
#X msg 289 167 28;
#X msg 329 167 60;
#X obj 183 205 i;
#X obj 183 230 outlet;
#X obj 114 142 route off rl rf al af y gl gf;
#X obj 114 120 list trim;
#X obj 81 95 symbol \$1;
#X obj 153 95 symbol \$2;
#X obj 96 51 sel 1 0;
#X connect 0 0 15 0;
#X connect 1 0 9 0;
#X connect 2 0 9 0;
#X connect 3 0 9 0;
#X connect 4 0 9 0;
#X connect 5 0 9 0;
#X connect 6 0 9 0;
#X connect 7 0 9 0;
#X connect 8 0 9 0;
#X connect 9 0 10 0;
#X connect 11 0 1 0;
#X connect 11 1 2 0;
#X connect 11 2 3 0;
#X connect 11 3 4 0;
#X connect 11 4 5 0;
#X connect 11 5 6 0;
#X connect 11 6 7 0;
#X connect 11 7 8 0;
#X connect 12 0 11 0;
#X connect 13 0 12 0;
#X connect 14 0 12 0;
#X connect 15 0 13 0;
#X connect 15 1 14 0;
