#N canvas -1107 87 542 660 10;
#X obj 235 174 % 8;
#X obj 262 174 / 16;
#X obj 262 196 i;
#X obj 235 152 t f f;
#X obj 235 219 pack f f f;
#X obj 202 540 * 16;
#X obj 187 563 +;
#X obj 114 529 * 16;
#X obj 114 553 + 8;
#X obj 114 500 unpack;
#X obj 187 517 unpack f f f;
#X obj 367 588 ctlout;
#X obj 402 51 ctlin;
#X obj 415 113 spigot;
#X obj 402 93 spigot;
#X obj 402 138 swap;
#X obj 423 182 > 0;
#X obj 402 205 pack;
#X obj 402 161 - 104;
#X obj 41 64 pack f f;
#X obj 41 91 route 8 24 40 56 72 88 104 120;
#X msg 41 115 0 \$1;
#X msg 63 138 1 \$1;
#X msg 85 116 2 \$1;
#X msg 107 138 3 \$1;
#X msg 129 115 4 \$1;
#X msg 151 138 5 \$1;
#X msg 173 115 6 \$1;
#X msg 195 138 7 \$1;
#X obj 86 43 > 0;
#X obj 235 131 unpack f f;
#X obj 127 192 t l;
#X obj 300 533 + 104;
#X obj 279 511 swap;
#X obj 279 490 unpack f f;
#X obj 300 555 t f b;
#X obj 367 544 t f f b;
#X msg 367 523 0;
#X obj 367 501 t b;
#X obj 406 566 \$1;
#X obj 279 601 ctlout;
#X obj 327 579 \$1;
#X obj 114 588 noteout \$1;
#X obj 187 589 noteout \$1;
#X obj 193 447 route mode grid ctl reset;
#X obj 193 417 inlet;
#X obj 66 248 list prepend mode;
#X obj 199 272 list prepend grid;
#X obj 385 253 list prepend ctl;
#X obj 207 347 outlet;
#X obj 213 319 list trim;
#X obj 429 72 == \$1;
#X obj 41 22 notein \$1;
#X connect 0 0 4 0;
#X connect 1 0 2 0;
#X connect 2 0 4 1;
#X connect 3 0 0 0;
#X connect 3 1 1 0;
#X connect 4 0 47 0;
#X connect 5 0 6 1;
#X connect 7 0 8 0;
#X connect 8 0 42 0;
#X connect 9 0 7 0;
#X connect 9 1 42 1;
#X connect 10 0 6 0;
#X connect 10 1 5 0;
#X connect 10 2 43 1;
#X connect 12 0 14 0;
#X connect 12 1 13 0;
#X connect 12 2 51 0;
#X connect 13 0 15 1;
#X connect 14 0 15 0;
#X connect 15 0 18 0;
#X connect 15 1 16 0;
#X connect 16 0 17 1;
#X connect 17 0 48 0;
#X connect 18 0 17 0;
#X connect 19 0 20 0;
#X connect 20 0 21 0;
#X connect 20 1 22 0;
#X connect 20 2 23 0;
#X connect 20 3 24 0;
#X connect 20 4 25 0;
#X connect 20 5 26 0;
#X connect 20 6 27 0;
#X connect 20 7 28 0;
#X connect 20 8 30 0;
#X connect 21 0 31 0;
#X connect 22 0 31 0;
#X connect 23 0 31 0;
#X connect 24 0 31 0;
#X connect 25 0 31 0;
#X connect 26 0 31 0;
#X connect 27 0 31 0;
#X connect 28 0 31 0;
#X connect 29 0 19 1;
#X connect 30 0 3 0;
#X connect 30 1 4 2;
#X connect 31 0 46 0;
#X connect 32 0 35 0;
#X connect 33 0 40 0;
#X connect 33 1 32 0;
#X connect 34 0 33 0;
#X connect 34 1 33 1;
#X connect 35 0 40 1;
#X connect 35 1 41 0;
#X connect 36 0 11 0;
#X connect 36 1 11 1;
#X connect 36 2 39 0;
#X connect 37 0 36 0;
#X connect 38 0 37 0;
#X connect 39 0 11 2;
#X connect 41 0 40 2;
#X connect 44 0 9 0;
#X connect 44 1 10 0;
#X connect 44 2 34 0;
#X connect 44 3 38 0;
#X connect 45 0 44 0;
#X connect 46 0 50 0;
#X connect 47 0 50 0;
#X connect 48 0 50 0;
#X connect 50 0 49 0;
#X connect 51 0 13 1;
#X connect 51 0 14 1;
#X connect 52 0 19 0;
#X connect 52 1 29 0;
