#N struct 1004-track float a float b float c float d float e float
f float g float h;
#N canvas -1110 123 867 765 10;
#N canvas 0 0 450 300 \$0-trackdata 0;
#X scalar 1004-track 1 0 0 0 0 0 0 0 \;;
#X scalar 1004-track 0 0 0 0 0 0 0 0 \;;
#X scalar 1004-track 0 0 0 0 0 0 0 0 \;;
#X scalar 1004-track 0 0 0 0 0 0 0 0 \;;
#X scalar 1004-track 0 0 0 0 0 0 0 0 \;;
#X scalar 1004-track 0 1 0 0 0 0 0 0 \;;
#X scalar 1004-track 0 1 0 0 0 0 0 0 \;;
#X scalar 1004-track 0 0 0 0 0 0 0 0 \;;
#X scalar 1004-track 1 0 0 0 0 0 0 0 \;;
#X scalar 1004-track 0 1 0 0 0 1 1 1 \;;
#X scalar 1004-track 1 0 0 0 1 1 1 1 \;;
#X scalar 1004-track 0 1 1 0 1 0 0 0 \;;
#X scalar 1004-track 1 1 0 0 0 0 1 1 \;;
#X scalar 1004-track 1 1 1 0 0 1 1 1 \;;
#X scalar 1004-track 0 1 0 0 1 0 0 0 \;;
#X scalar 1004-track 0 0 0 0 0 0 0 0 \;;
#X scalar 1004-track 1 0 0 0 0 0 0 1 \;;
#X scalar 1004-track 0 0 1 0 0 0 0 0 \;;
#X scalar 1004-track 0 1 0 0 0 1 1 0 \;;
#X scalar 1004-track 1 0 1 0 0 1 0 1 \;;
#X scalar 1004-track 0 0 0 0 1 0 0 0 \;;
#X scalar 1004-track 1 1 0 0 0 1 1 0 \;;
#X scalar 1004-track 1 0 1 0 0 1 0 1 \;;
#X scalar 1004-track 0 1 0 0 0 1 0 0 \;;
#X scalar 1004-track 0 0 0 0 0 0 0 0 \;;
#X scalar 1004-track 1 0 0 0 1 0 0 0 \;;
#X scalar 1004-track 1 0 0 0 1 1 0 0 \;;
#X scalar 1004-track 0 1 1 0 0 1 1 0 \;;
#X scalar 1004-track 0 0 1 0 0 0 1 1 \;;
#X scalar 1004-track 0 0 0 0 1 0 0 0 \;;
#X scalar 1004-track 0 1 1 0 0 0 0 0 \;;
#X scalar 1004-track 0 0 0 0 0 0 1 1 \;;
#X scalar 1004-track 0 0 1 0 0 0 0 0 \;;
#X scalar 1004-track 1 1 1 0 1 1 1 0 \;;
#X scalar 1004-track 1 0 0 0 0 1 1 1 \;;
#X scalar 1004-track 1 0 0 0 0 0 0 1 \;;
#X scalar 1004-track 0 1 0 0 0 0 0 1 \;;
#X scalar 1004-track 1 0 0 0 0 1 1 0 \;;
#X scalar 1004-track 0 0 0 0 0 1 0 0 \;;
#X scalar 1004-track 0 0 0 0 0 0 0 0 \;;
#X scalar 1004-track 0 0 0 0 0 0 1 0 \;;
#X scalar 1004-track 0 0 1 0 1 1 0 1 \;;
#X scalar 1004-track 1 0 1 0 0 0 0 0 \;;
#X scalar 1004-track 0 0 0 0 0 1 1 0 \;;
#X scalar 1004-track 0 0 0 0 0 0 1 1 \;;
#X scalar 1004-track 0 1 0 0 0 0 0 0 \;;
#X scalar 1004-track 0 0 0 0 0 0 0 0 \;;
#X scalar 1004-track 0 0 0 0 0 0 0 0 \;;
#X scalar 1004-track 0 0 0 0 0 0 0 0 \;;
#X scalar 1004-track 0 0 0 0 0 0 0 0 \;;
#X scalar 1004-track 0 0 1 0 0 0 0 0 \;;
#X scalar 1004-track 0 1 0 0 1 0 0 0 \;;
#X scalar 1004-track 1 1 0 0 0 1 0 0 \;;
#X scalar 1004-track 0 0 1 0 0 1 1 1 \;;
#X scalar 1004-track 0 0 1 0 0 0 0 1 \;;
#X scalar 1004-track 0 0 0 0 0 0 0 0 \;;
#X scalar 1004-track 0 0 0 0 0 0 0 0 \;;
#X scalar 1004-track 0 0 0 0 0 0 0 0 \;;
#X scalar 1004-track 0 0 0 0 0 0 0 0 \;;
#X scalar 1004-track 0 0 0 0 1 1 1 1 \;;
#X scalar 1004-track 1 1 1 0 0 0 0 0 \;;
#X scalar 1004-track 0 0 1 0 0 0 0 0 \;;
#X scalar 1004-track 0 0 0 0 0 0 0 0 \;;
#X scalar 1004-track 0 0 0 0 0 0 0 0 \;;
#X restore 356 100 pd \$0-trackdata;
#N canvas 0 51 622 225 \$0-tracktemplate 0;
#X obj 99 40 struct \$0-track float a float b float c float d float
e float f float g float h;
#X restore 356 80 pd \$0-tracktemplate;
#X obj 91 292 track \$0-trackdata \$0-track a;
#X obj 652 217 pointer;
#X msg 603 180 next;
#X msg 652 195 traverse pd-\$1;
#X obj 603 120 route clock reset;
#X obj 133 269 r \$0-position;
#X obj 652 175 symbol \$0-trackdata;
#X obj 652 239 s \$0-position;
#X obj 611 149 t b b;
#X obj 603 98 inlet;
#X obj 176 486 outlet;
#X obj 91 217 list prepend;
#N canvas 0 414 326 278 setup 0;
#X obj 117 182 pointer;
#X obj 117 161 t b a;
#X obj 48 106 until;
#X obj 159 84 \$0;
#X obj 117 116 \$0;
#X msg 159 105 \; pd-\$1-trackdata clear;
#X msg 117 139 traverse pd-\$1-trackdata;
#X obj 48 204 append \$0-track a;
#X obj 48 62 t b b b;
#X obj 48 38 loadbang;
#X msg 48 128 0;
#X obj 48 84 \$1;
#X obj 15 40 bng 15 250 50 0 empty empty empty 17 7 0 10 -262144 -1
-1;
#X connect 0 0 7 1;
#X connect 1 0 0 0;
#X connect 1 1 0 0;
#X connect 2 0 10 0;
#X connect 3 0 5 0;
#X connect 4 0 6 0;
#X connect 6 0 1 0;
#X connect 8 0 11 0;
#X connect 8 1 4 0;
#X connect 8 2 3 0;
#X connect 9 0 8 0;
#X connect 10 0 7 0;
#X connect 11 0 2 0;
#X connect 12 0 8 0;
#X restore 356 60 pd setup;
#X obj 91 175 + 1;
#X obj 149 32 inlet;
#X obj 149 56 route grid mode;
#X obj 192 78 unpack;
#X obj 192 100 spigot;
#X obj 91 242 list trim;
#X obj 91 112 unpack f f f;
#X obj 91 196 spigot;
#X obj 125 133 * 8;
#X obj 91 154 +;
#N canvas -1177 322 450 300 trackselect 0;
#X obj 112 89 route 0 1 2 3 4 5 6 7;
#X msg 112 112 a;
#X msg 127 133 b;
#X msg 158 133 b;
#X msg 142 112 c;
#X msg 173 112 e;
#X msg 188 133 f;
#X msg 204 112 g;
#X msg 219 133 h;
#X obj 112 50 inlet;
#X obj 112 197 outlet;
#X connect 0 0 1 0;
#X connect 0 1 2 0;
#X connect 0 2 4 0;
#X connect 0 3 3 0;
#X connect 0 4 5 0;
#X connect 0 5 6 0;
#X connect 0 6 7 0;
#X connect 0 7 8 0;
#X connect 1 0 10 0;
#X connect 2 0 10 0;
#X connect 3 0 10 0;
#X connect 4 0 10 0;
#X connect 5 0 10 0;
#X connect 6 0 10 0;
#X connect 7 0 10 0;
#X connect 8 0 10 0;
#X connect 9 0 0 0;
#X restore 192 159 pd trackselect;
#X obj 262 484 list split 1;
#X obj 296 506 unpack f f;
#X obj 296 551 t f f;
#X obj 296 574 % 8;
#X obj 323 576 / 8;
#X obj 296 622 pack f f f;
#X obj 569 588 outlet;
#X obj 296 528 - 1;
#X obj 192 128 t f f;
#N canvas -654 249 450 300 tracklight 1;
#X obj 131 39 inlet;
#X obj 131 168 outlet;
#X obj 170 105 i;
#X obj 131 72 t f f b;
#X msg 170 134 \$1 0;
#X msg 131 134 \$1 1;
#X connect 0 0 3 0;
#X connect 2 0 4 0;
#X connect 3 0 5 0;
#X connect 3 1 2 1;
#X connect 3 2 2 0;
#X connect 4 0 1 0;
#X connect 5 0 1 0;
#X restore 350 182 pd tracklight;
#X obj 296 685 s \$0-lightsout;
#X obj 569 530 r \$0-lightsout;
#X obj 350 204 unpack f f;
#X obj 350 313 s \$0-lightsout;
#X obj 350 250 pack f f;
#X obj 254 75 loadbang;
#X msg 254 98 0;
#X obj 192 193 t a a;
#X obj 323 598 i;
#X obj 353 528 clr gf off;
#X obj 407 226 clr gf off;
#X obj 296 647 list prepend grid;
#X obj 350 282 list prepend mode;
#X obj 569 561 list trim;
#X obj 91 317 track \$0-trackdata \$0-track b;
#X obj 91 342 track \$0-trackdata \$0-track c;
#X obj 91 365 track \$0-trackdata \$0-track d;
#X obj 91 389 track \$0-trackdata \$0-track e;
#X obj 91 414 track \$0-trackdata \$0-track f;
#X obj 91 439 track \$0-trackdata \$0-track g;
#X obj 91 462 track \$0-trackdata \$0-track h;
#X connect 2 0 50 0;
#X connect 2 1 50 1;
#X connect 2 2 50 2;
#X connect 2 3 50 3;
#X connect 2 4 50 4;
#X connect 3 0 9 0;
#X connect 3 1 10 0;
#X connect 4 0 3 0;
#X connect 5 0 3 0;
#X connect 6 0 4 0;
#X connect 6 1 8 0;
#X connect 7 0 2 1;
#X connect 8 0 5 0;
#X connect 10 0 4 0;
#X connect 10 1 8 0;
#X connect 11 0 6 0;
#X connect 13 0 20 0;
#X connect 15 0 22 0;
#X connect 16 0 17 0;
#X connect 17 0 21 0;
#X connect 17 1 18 0;
#X connect 18 0 19 0;
#X connect 18 1 19 1;
#X connect 19 0 34 0;
#X connect 20 0 2 0;
#X connect 21 0 24 0;
#X connect 21 1 23 0;
#X connect 21 2 22 1;
#X connect 22 0 13 0;
#X connect 23 0 24 1;
#X connect 24 0 15 0;
#X connect 25 0 43 0;
#X connect 26 1 27 0;
#X connect 27 0 33 0;
#X connect 27 1 45 0;
#X connect 28 0 29 0;
#X connect 28 1 30 0;
#X connect 29 0 31 0;
#X connect 30 0 44 0;
#X connect 31 0 47 0;
#X connect 33 0 28 0;
#X connect 34 0 25 0;
#X connect 34 1 35 0;
#X connect 35 0 38 0;
#X connect 37 0 49 0;
#X connect 38 0 40 0;
#X connect 38 1 46 0;
#X connect 40 0 48 0;
#X connect 41 0 42 0;
#X connect 42 0 34 0;
#X connect 43 0 13 1;
#X connect 43 1 2 3;
#X connect 44 0 31 1;
#X connect 45 0 31 2;
#X connect 46 0 40 1;
#X connect 47 0 36 0;
#X connect 48 0 39 0;
#X connect 49 0 32 0;
#X connect 50 0 51 0;
#X connect 50 1 51 1;
#X connect 50 2 51 2;
#X connect 50 3 51 3;
#X connect 50 4 51 4;
#X connect 51 0 52 0;
#X connect 51 1 52 1;
#X connect 51 2 52 2;
#X connect 51 3 52 3;
#X connect 51 4 52 4;
#X connect 52 0 53 0;
#X connect 52 1 53 1;
#X connect 52 2 53 2;
#X connect 52 3 53 3;
#X connect 52 4 53 4;
#X connect 53 0 54 0;
#X connect 53 1 54 1;
#X connect 53 2 54 2;
#X connect 53 3 54 3;
#X connect 53 4 54 4;
#X connect 54 0 55 0;
#X connect 54 1 55 1;
#X connect 54 2 55 2;
#X connect 54 3 55 3;
#X connect 54 4 55 4;
#X connect 55 0 56 0;
#X connect 55 1 56 1;
#X connect 55 2 56 2;
#X connect 55 3 56 3;
#X connect 55 4 56 4;
#X connect 56 2 12 0;
#X connect 56 4 26 0;
