#N canvas -984 137 892 564 10;
#X obj 78 102 inlet;
#X obj 288 136 inlet;
#X obj 152 273 pointer;
#X msg 112 246 next;
#X obj 208 273 bng 15 250 50 0 empty empty empty 17 7 0 10 -262144
-1 -1;
#X obj 112 224 until;
#X obj 95 298 pointer;
#X obj 152 226 symbol \$1;
#X msg 152 246 traverse pd-\$1;
#X obj 126 439 set \$2 \$3;
#X obj 337 187 get \$2 \$3;
#X text 155 23 arguments are:;
#X text 250 23 \$1 - name of data window;
#X text 250 38 \$2 - name of data structure;
#X text 250 53 \$3 - name of data structure element;
#X obj 288 158 t p p;
#X obj 288 210 outlet;
#X obj 328 136 inlet;
#X obj 328 333 outlet;
#X obj 337 243 symbol \$3;
#X obj 337 211 t b f;
#X obj 337 267 pack s f;
#X obj 78 136 route \$3;
#X obj 123 159 outlet;
#X obj 95 350 get \$2 \$3;
#X obj 95 322 t p p;
#X obj 95 371 sel 0 1;
#X msg 95 399 1;
#X msg 125 399 0;
#X text 39 78 input is (element \, step);
#X obj 436 150 inlet;
#X obj 436 172 route \$3;
#X obj 481 195 outlet;
#X obj 727 201 inlet;
#X obj 727 253 outlet;
#X obj 473 289 pointer;
#X msg 436 268 next;
#X obj 529 289 bng 15 250 50 0 empty empty empty 17 7 0 10 -262144
-1 -1;
#X obj 436 247 until;
#X obj 473 247 symbol \$1;
#X msg 473 268 traverse pd-\$1;
#X obj 473 310 get \$2 \$3;
#X obj 473 354 f;
#X obj 502 354 + 1;
#X obj 473 376 pack f f;
#X obj 436 226 t b b b;
#X obj 473 332 t b f;
#X obj 618 191 list prepend \$3;
#X msg 575 248 1;
#X obj 78 189 t f b f b;
#X obj 78 439 pack;
#X obj 618 168 r \$0-lights-out;
#X obj 473 400 s \$0-lights-out;
#X obj 78 463 s \$0-lights-out;
#X connect 0 0 22 0;
#X connect 1 0 15 0;
#X connect 2 0 6 1;
#X connect 2 1 4 0;
#X connect 3 0 2 0;
#X connect 4 0 5 1;
#X connect 5 0 3 0;
#X connect 6 0 25 0;
#X connect 7 0 8 0;
#X connect 8 0 2 0;
#X connect 10 0 20 0;
#X connect 15 0 16 0;
#X connect 15 1 10 0;
#X connect 17 0 18 0;
#X connect 19 0 21 0;
#X connect 20 0 19 0;
#X connect 20 1 21 1;
#X connect 21 0 18 0;
#X connect 22 0 49 0;
#X connect 22 1 23 0;
#X connect 24 0 26 0;
#X connect 25 0 24 0;
#X connect 25 1 9 1;
#X connect 26 0 27 0;
#X connect 26 1 28 0;
#X connect 27 0 9 0;
#X connect 27 0 50 1;
#X connect 28 0 9 0;
#X connect 28 0 50 1;
#X connect 30 0 31 0;
#X connect 31 0 45 0;
#X connect 31 1 32 0;
#X connect 33 0 34 0;
#X connect 35 0 41 0;
#X connect 35 1 37 0;
#X connect 36 0 35 0;
#X connect 37 0 38 1;
#X connect 38 0 36 0;
#X connect 39 0 40 0;
#X connect 40 0 35 0;
#X connect 41 0 46 0;
#X connect 42 0 43 0;
#X connect 42 0 44 0;
#X connect 43 0 42 1;
#X connect 44 0 52 0;
#X connect 45 0 38 0;
#X connect 45 1 39 0;
#X connect 45 2 48 0;
#X connect 46 0 42 0;
#X connect 46 1 44 1;
#X connect 47 0 34 0;
#X connect 48 0 42 1;
#X connect 49 0 50 0;
#X connect 49 1 6 0;
#X connect 49 2 5 0;
#X connect 49 3 7 0;
#X connect 50 0 53 0;
#X connect 51 0 47 0;
