#N canvas -1408 310 667 452 10;
#X obj 84 141 list split 1;
#X obj 142 166 list;
#X obj 240 168 + 1;
#X msg 225 144 0;
#X obj 210 168 i 0;
#X obj 111 196 t f b;
#X obj 84 165 t b f;
#X obj 111 243 tabwrite sequence;
#X obj 206 114 t l b l;
#X obj 296 150 list length;
#X obj 484 213 + 1;
#X obj 454 213 i 0;
#X obj 454 163 metro 400;
#X obj 454 130 tgl 15 0 empty empty empty 17 7 0 10 -262144 -1 -1 0
1;
#X obj 484 289 sel;
#X obj 511 263 v seqlength;
#X msg 484 312 0;
#X obj 484 242 t f b f;
#X obj 454 336 tabread sequence;
#X floatatom 454 374 5 0 0 0 - - -;
#X floatatom 377 258 5 0 0 0 - - -;
#X obj 296 208 s sequence;
#X msg 296 182 resize \$1;
#X msg 206 71 1 0 1 1 0 1 1 0 1 1 1;
#X obj 366 182 v seqlength;
#X obj 476 110 table sequence;
#X connect 0 0 6 0;
#X connect 0 1 1 1;
#X connect 1 0 0 0;
#X connect 2 0 4 1;
#X connect 3 0 4 1;
#X connect 4 0 2 0;
#X connect 4 0 7 1;
#X connect 5 0 7 0;
#X connect 5 1 4 0;
#X connect 6 0 1 0;
#X connect 6 1 5 0;
#X connect 8 0 0 0;
#X connect 8 1 3 0;
#X connect 8 2 9 0;
#X connect 9 0 22 0;
#X connect 9 0 24 0;
#X connect 10 0 17 0;
#X connect 11 0 10 0;
#X connect 11 0 18 0;
#X connect 11 0 20 0;
#X connect 12 0 11 0;
#X connect 13 0 12 0;
#X connect 14 0 16 0;
#X connect 15 0 14 1;
#X connect 16 0 11 1;
#X connect 17 0 14 0;
#X connect 17 1 15 0;
#X connect 17 2 11 1;
#X connect 18 0 19 0;
#X connect 22 0 21 0;
#X connect 23 0 8 0;
