#N canvas -1660 310 614 349 10;
#X floatatom 88 81 5 0 0 0 - - -;
#X obj 88 241 print passed;
#X msg 88 102 one \$1;
#X floatatom 138 81 5 0 0 0 - - -;
#X floatatom 187 81 5 0 0 0 - - -;
#X floatatom 247 81 5 0 0 0 - - -;
#X msg 138 102 two \$1;
#X msg 187 102 three \$1;
#X msg 247 102 four \$1;
#X obj 88 139 s-passthrough-abs \$0 one;
#X floatatom 302 81 5 0 0 0 - - -;
#X msg 302 102 none \$1;
#X obj 88 166 s-passthrough-abs \$0 two;
#X obj 88 190 s-passthrough-abs \$0 three;
#X obj 88 217 s-passthrough-abs \$0 four;
#X obj 410 80 r \$0-one-set;
#X floatatom 410 103 5 0 0 0 - - -;
#X floatatom 410 151 5 0 0 0 - - -;
#X floatatom 409 197 5 0 0 0 - - -;
#X floatatom 409 245 5 0 0 0 - - -;
#X obj 410 128 r \$0-two-set;
#X obj 409 174 r \$0-three-set;
#X obj 409 222 r \$0-four-set;
#X connect 0 0 2 0;
#X connect 2 0 9 0;
#X connect 3 0 6 0;
#X connect 4 0 7 0;
#X connect 5 0 8 0;
#X connect 6 0 9 0;
#X connect 7 0 9 0;
#X connect 8 0 9 0;
#X connect 9 0 12 0;
#X connect 10 0 11 0;
#X connect 11 0 9 0;
#X connect 12 0 13 0;
#X connect 13 0 14 0;
#X connect 14 0 1 0;
#X connect 15 0 16 0;
#X connect 20 0 17 0;
#X connect 21 0 18 0;
#X connect 22 0 19 0;
