#N canvas 162 41 686 474 10;
#X obj 113 -11 inlet;
#X obj 151 -11 inlet;
#X obj 130 57 list;
#X obj 338 125 s \$0-mainellen;
#X obj 434 123 s \$0-subellen;
#X obj 147 105 list length;
#X obj 164 38 s \$0-lens;
#X obj 147 162 /;
#X obj 147 185 i;
#X obj 174 162 %;
#X obj 147 128 t f f;
#X obj 174 185 > 0;
#X obj 147 208 +;
#X obj 189 129 r \$0-mainellen;
#X obj 130 275 list split;
#X obj 149 300 route list;
#X obj 147 231 *;
#X obj 174 208 r \$0-subellen;
#X obj 338 41 r \$0-lens;
#X obj 242 286 route bang;
#X obj 359 80 inlet;
#X obj 455 79 inlet;
#X obj 65 102 outlet;
#X obj 130 326 outlet;
#X obj 242 341 outlet;
#X msg 242 313 list;
#X obj 338 103 i \$1;
#X obj 434 101 i \$2;
#X floatatom 201 243 5 0 0 0 - - -;
#X obj 113 13 t a b l b;
#X connect 0 0 29 0;
#X connect 1 0 2 1;
#X connect 2 0 14 0;
#X connect 5 0 10 0;
#X connect 7 0 8 0;
#X connect 8 0 12 0;
#X connect 9 0 11 0;
#X connect 10 0 7 0;
#X connect 10 1 9 0;
#X connect 11 0 12 1;
#X connect 12 0 16 0;
#X connect 13 0 9 1;
#X connect 13 0 7 1;
#X connect 14 0 23 0;
#X connect 14 1 19 0;
#X connect 14 2 15 0;
#X connect 15 0 23 0;
#X connect 16 0 14 1;
#X connect 16 0 28 0;
#X connect 17 0 16 1;
#X connect 18 0 26 0;
#X connect 18 0 27 0;
#X connect 19 0 25 0;
#X connect 19 1 24 0;
#X connect 20 0 26 1;
#X connect 21 0 27 1;
#X connect 25 0 24 0;
#X connect 26 0 3 0;
#X connect 27 0 4 0;
#X connect 29 0 22 0;
#X connect 29 1 2 0;
#X connect 29 2 5 0;
#X connect 29 3 6 0;
