#N canvas 158 70 787 502 10;
#X obj 406 -81 list;
#X obj 450 -98 list;
#X obj 406 -125 t b b;
#X obj 675 -97 list prepend;
#X obj 346 41 list append;
#X obj 675 -76 t a;
#X obj 654 -55 list;
#X obj 346 62 t b a;
#X msg 744 -120 list;
#X obj 654 -174 route bang;
#X obj 654 -151 t b b;
#X obj 409 14 list;
#X obj 293 -15 t a b;
#X obj 107 -177 list;
#X obj 346 105 s \$0-next-el;
#X obj 406 -149 r \$0-next-el;
#X obj 529 -61 route bang list;
#X msg 529 -39 list;
#X obj 88 -242 inlet;
#X obj 128 -242 inlet;
#X obj 224 -292 inlet;
#X obj 293 -111 list split \$1;
#X obj 654 32 outlet;
#X obj 487 -118 list split \$2;
#X obj 654 -196 r \$0-done;
#X obj 406 -59 s \$0-done;
#X obj 373 84 s \$0-elout;
#X obj 675 -121 r \$0-elout;
#X obj 13 18 s \$0-mainlist;
#X obj 107 92 s \$0-sublist;
#X obj 487 -160 r \$0-sublist;
#X obj 293 -155 r \$0-mainlist;
#X obj 304 -57 route list;
#X obj 209 -264 i;
#X obj 209 -242 s \$0-mainellen;
#X obj 299 -133 r \$0-mainellen;
#X obj 338 -292 inlet;
#X obj 323 -266 i;
#X obj 323 -244 s \$0-subellen;
#X obj 494 -139 r \$0-subellen;
#X obj 115 -129 list length;
#X obj 88 -154 t l l;
#X obj 281 -327 r \$0-lens;
#X obj 88 -221 t a b b;
#X obj 127 -198 s \$0-lens;
#X obj 115 -72 /;
#X obj 115 -49 i;
#X obj 142 -72 %;
#X obj 115 -106 t f f;
#X obj 142 -49 > 0;
#X obj 115 -26 +;
#X obj 157 -105 r \$0-mainellen;
#X obj 107 41 list split;
#X obj 126 66 route list;
#X obj 115 -3 *;
#X obj 142 -26 r \$0-subellen;
#X obj 655 -6 list append;
#X obj 719 -36 r \$0-excess;
#X obj 201 92 s \$0-excess;
#X obj 201 46 route bang list;
#X msg 201 70 list;
#X connect 0 0 21 0;
#X connect 0 0 25 0;
#X connect 1 0 23 0;
#X connect 2 0 0 0;
#X connect 2 1 1 0;
#X connect 3 0 5 0;
#X connect 4 0 7 0;
#X connect 5 0 3 1;
#X connect 5 0 6 1;
#X connect 6 0 56 0;
#X connect 7 0 14 0;
#X connect 7 1 26 0;
#X connect 8 0 3 1;
#X connect 9 0 10 0;
#X connect 10 0 6 0;
#X connect 10 1 8 0;
#X connect 11 0 4 1;
#X connect 12 0 4 0;
#X connect 12 1 11 0;
#X connect 13 0 52 0;
#X connect 15 0 2 0;
#X connect 16 0 17 0;
#X connect 16 2 11 1;
#X connect 17 0 11 1;
#X connect 18 0 43 0;
#X connect 19 0 13 1;
#X connect 20 0 33 1;
#X connect 21 0 12 0;
#X connect 21 1 0 1;
#X connect 21 2 32 0;
#X connect 23 0 11 1;
#X connect 23 1 1 1;
#X connect 23 2 16 0;
#X connect 24 0 9 0;
#X connect 27 0 3 0;
#X connect 30 0 23 0;
#X connect 31 0 21 0;
#X connect 32 0 12 0;
#X connect 33 0 34 0;
#X connect 35 0 21 1;
#X connect 36 0 37 1;
#X connect 37 0 38 0;
#X connect 39 0 23 1;
#X connect 40 0 48 0;
#X connect 41 0 28 0;
#X connect 41 1 40 0;
#X connect 42 0 37 0;
#X connect 42 0 33 0;
#X connect 43 0 41 0;
#X connect 43 1 13 0;
#X connect 43 2 44 0;
#X connect 45 0 46 0;
#X connect 46 0 50 0;
#X connect 47 0 49 0;
#X connect 48 0 45 0;
#X connect 48 1 47 0;
#X connect 49 0 50 1;
#X connect 50 0 54 0;
#X connect 51 0 47 1;
#X connect 51 0 45 1;
#X connect 52 0 29 0;
#X connect 52 1 59 0;
#X connect 52 2 53 0;
#X connect 53 0 29 0;
#X connect 54 0 52 1;
#X connect 55 0 54 1;
#X connect 56 0 22 0;
#X connect 57 0 56 1;
#X connect 59 0 60 0;
#X connect 59 1 58 0;
#X connect 60 0 58 0;
