#N canvas 218 32 617 460 10;
#X obj 108 -140 list;
#X obj 259 -175 s \$0-mainellen;
#X obj 373 -177 s \$0-subellen;
#X obj 125 -119 list length;
#X obj 142 -141 s \$0-lens;
#X obj 125 -71 /;
#X obj 125 -48 i;
#X obj 152 -71 %;
#X obj 125 -96 t f f;
#X obj 152 -48 > 0;
#X obj 125 -25 +;
#X obj 167 -95 r \$0-mainellen;
#X obj 108 42 list split;
#X obj 127 67 route list;
#X obj 125 -2 *;
#X obj 152 -25 r \$0-subellen;
#X floatatom 278 -227 5 0 0 0 - - -;
#X floatatom 390 -231 5 0 0 0 - - -;
#X obj 91 -184 list;
#X obj 129 -184 list;
#X msg 91 -241 1 2 3 4;
#X obj 23 19 print main;
#X obj 108 93 print sub;
#X obj 263 75 print excess;
#X obj 276 -278 r \$0-lens;
#X floatatom 183 8 5 0 0 0 - - -;
#X msg 129 -211 1 2 3 4 5;
#X msg 263 47 none;
#X obj 263 20 route bang;
#X obj 91 -163 t a b l b;
#X obj 259 -196 i 1;
#X obj 373 -199 i 1;
#X connect 0 0 12 0;
#X connect 3 0 8 0;
#X connect 5 0 6 0;
#X connect 6 0 10 0;
#X connect 7 0 9 0;
#X connect 8 0 5 0;
#X connect 8 1 7 0;
#X connect 9 0 10 1;
#X connect 10 0 14 0;
#X connect 11 0 7 1;
#X connect 11 0 5 1;
#X connect 12 0 22 0;
#X connect 12 1 28 0;
#X connect 12 2 13 0;
#X connect 13 0 22 0;
#X connect 14 0 12 1;
#X connect 14 0 25 0;
#X connect 15 0 14 1;
#X connect 16 0 30 1;
#X connect 17 0 31 1;
#X connect 18 0 29 0;
#X connect 19 0 0 1;
#X connect 20 0 18 0;
#X connect 24 0 30 0;
#X connect 24 0 31 0;
#X connect 26 0 19 0;
#X connect 27 0 23 0;
#X connect 28 0 27 0;
#X connect 28 1 23 0;
#X connect 29 0 21 0;
#X connect 29 1 0 0;
#X connect 29 2 3 0;
#X connect 29 3 4 0;
#X connect 30 0 1 0;
#X connect 31 0 2 0;
