#N canvas 156 89 784 502 10;
#X obj 315 -36 list;
#X obj 437 -38 list;
#X obj 350 -68 t b b;
#X obj 641 4 list prepend;
#X obj 265 78 list append;
#X obj 641 30 t a;
#X obj 620 54 list;
#X obj 265 99 t b a;
#X msg 710 -19 list;
#X obj 620 -44 t b b;
#X obj 357 45 list;
#X obj 265 -6 t a b;
#X obj 125 -69 list;
#X obj 38 -94 t a b;
#X obj 265 139 s \$0-next-el;
#X obj 350 -92 r \$0-next-el;
#X obj 620 75 print;
#X obj 265 -85 list split 1;
#X obj 433 -90 list split 1;
#X msg 146 -91 a b c d e;
#X msg 38 -116 1 2 3 4 5;
#X obj 315 6 s \$0-done;
#X obj 620 -65 r \$0-done;
#X obj 292 119 s \$0-elout;
#X obj 641 -19 r \$0-elout;
#X obj 315 -15 route bang;
#X obj 265 -109 r \$0-mainlist;
#X obj 38 -47 s \$0-mainlist;
#X obj 433 -112 r \$0-sublist;
#X obj 125 -47 s \$0-sublist;
#X connect 0 0 25 0;
#X connect 1 0 18 0;
#X connect 2 0 0 0;
#X connect 2 1 1 0;
#X connect 3 0 5 0;
#X connect 4 0 7 0;
#X connect 5 0 3 1;
#X connect 5 0 6 1;
#X connect 6 0 16 0;
#X connect 7 0 14 0;
#X connect 7 1 23 0;
#X connect 8 0 3 1;
#X connect 9 0 6 0;
#X connect 9 1 8 0;
#X connect 10 0 4 1;
#X connect 11 0 4 0;
#X connect 11 1 10 0;
#X connect 12 0 29 0;
#X connect 13 0 27 0;
#X connect 13 1 12 0;
#X connect 15 0 2 0;
#X connect 17 0 11 0;
#X connect 17 1 0 1;
#X connect 18 0 10 1;
#X connect 18 1 1 1;
#X connect 19 0 12 1;
#X connect 20 0 13 0;
#X connect 22 0 9 0;
#X connect 24 0 3 0;
#X connect 25 0 21 0;
#X connect 25 1 17 0;
#X connect 26 0 17 0;
#X connect 28 0 18 0;
