#N canvas 0 0 450 300 10;
#X obj 103 18 list split 1;
#X obj 80 96 print main;
#X obj 159 78 list;
#X obj 159 104 route bang;
#X obj 159 133 print bang;
#X msg 103 -17 1 2 3 4 5 6;
#X obj 103 42 t b a;
#X connect 0 0 6 0;
#X connect 0 1 2 1;
#X connect 2 0 3 0;
#X connect 2 0 0 0;
#X connect 3 0 4 0;
#X connect 5 0 0 0;
#X connect 6 0 2 0;
#X connect 6 1 1 0;
