#N struct 1002-track float a float b float c float d float e float
f float g float h;
#N canvas -1377 146 999 493 10;
#N canvas 0 0 450 300 \$0-trackdata 0;
#X scalar 1002-track 1 0 0 0 0 0 0 0 \;;
#X scalar 1002-track 2 0 0 0 0 0 0 0 \;;
#X scalar 1002-track 3 0 0 0 0 0 0 0 \;;
#X scalar 1002-track 4 0 0 0 0 0 0 0 \;;
#X scalar 1002-track 5 0 0 0 0 0 0 0 \;;
#X scalar 1002-track 6 0 0 0 0 0 0 0 \;;
#X scalar 1002-track 7 0 0 0 0 0 0 0 \;;
#X scalar 1002-track 8 0 0 0 0 0 0 0 \;;
#X scalar 1002-track 9 0 0 0 0 0 0 0 \;;
#X scalar 1002-track 10 0 0 0 0 0 0 0 \;;
#X scalar 1002-track 11 0 0 0 0 0 0 0 \;;
#X scalar 1002-track 12 0 0 0 0 0 0 0 \;;
#X scalar 1002-track 13 0 0 0 0 0 0 0 \;;
#X scalar 1002-track 14 0 0 0 0 0 0 0 \;;
#X scalar 1002-track 15 0 0 0 0 0 0 0 \;;
#X scalar 1002-track 16 0 0 0 0 0 0 0 \;;
#X scalar 1002-track 17 0 0 0 0 0 0 0 \;;
#X scalar 1002-track 18 0 0 0 0 0 0 0 \;;
#X scalar 1002-track 19 0 0 0 0 0 0 0 \;;
#X scalar 1002-track 20 0 0 0 0 0 0 0 \;;
#X scalar 1002-track 21 0 0 0 0 0 0 0 \;;
#X scalar 1002-track 22 0 0 0 0 0 0 0 \;;
#X scalar 1002-track 23 0 0 0 0 0 0 0 \;;
#X scalar 1002-track 24 0 0 0 0 0 0 0 \;;
#X scalar 1002-track 25 0 0 0 0 0 0 0 \;;
#X scalar 1002-track 26 0 0 0 0 0 0 0 \;;
#X scalar 1002-track 27 0 0 0 0 0 0 0 \;;
#X scalar 1002-track 28 0 0 0 0 0 0 0 \;;
#X scalar 1002-track 29 0 0 0 0 0 0 0 \;;
#X scalar 1002-track 30 0 0 0 0 0 0 0 \;;
#X scalar 1002-track 31 0 0 0 0 0 0 0 \;;
#X scalar 1002-track 32 0 0 0 0 0 0 0 \;;
#X scalar 1002-track 33 0 0 0 0 0 0 0 \;;
#X scalar 1002-track 34 0 0 0 0 0 0 0 \;;
#X scalar 1002-track 35 0 0 0 0 0 0 0 \;;
#X scalar 1002-track 36 0 0 0 0 0 0 0 \;;
#X scalar 1002-track 37 0 0 0 0 0 0 0 \;;
#X scalar 1002-track 38 0 0 0 0 0 0 0 \;;
#X scalar 1002-track 39 0 0 0 0 0 0 0 \;;
#X scalar 1002-track 40 0 0 0 0 0 0 0 \;;
#X scalar 1002-track 41 0 0 0 0 0 0 0 \;;
#X scalar 1002-track 42 0 0 0 0 0 0 0 \;;
#X scalar 1002-track 43 0 0 0 0 0 0 0 \;;
#X scalar 1002-track 44 0 0 0 0 0 0 0 \;;
#X scalar 1002-track 45 0 0 0 0 0 0 0 \;;
#X scalar 1002-track 46 0 0 0 0 0 0 0 \;;
#X scalar 1002-track 47 0 0 0 0 0 0 0 \;;
#X scalar 1002-track 48 0 0 0 0 0 0 0 \;;
#X scalar 1002-track 49 0 0 0 0 0 0 0 \;;
#X scalar 1002-track 50 0 0 0 0 0 0 0 \;;
#X scalar 1002-track 51 0 0 0 0 0 0 0 \;;
#X scalar 1002-track 52 0 0 0 0 0 0 0 \;;
#X scalar 1002-track 53 0 0 0 0 0 0 0 \;;
#X scalar 1002-track 54 0 0 0 0 0 0 0 \;;
#X scalar 1002-track 55 0 0 0 0 0 0 0 \;;
#X scalar 1002-track 56 0 0 0 0 0 0 0 \;;
#X scalar 1002-track 57 0 0 0 0 0 0 0 \;;
#X scalar 1002-track 58 0 0 0 0 0 0 0 \;;
#X scalar 1002-track 59 0 0 0 0 0 0 0 \;;
#X scalar 1002-track 60 0 0 0 0 0 0 0 \;;
#X scalar 1002-track 61 0 0 0 0 0 0 0 \;;
#X scalar 1002-track 62 0 0 0 0 0 0 0 \;;
#X scalar 1002-track 63 0 0 0 0 0 0 0 \;;
#X scalar 1002-track 64 0 0 0 0 0 0 0 \;;
#X restore 39 67 pd \$0-trackdata;
#N canvas 0 51 622 225 \$0-tracktemplate 0;
#X obj 99 40 struct \$0-track float a float b float c float d float
e float f float g float h;
#X restore 39 47 pd \$0-tracktemplate;
#X obj 55 173 track \$0-trackdata \$0-track a;
#X obj 728 274 pointer;
#X obj 728 253 t b a;
#X obj 659 198 until;
#X obj 770 176 \$0;
#X obj 728 208 \$0;
#X msg 770 197 \; pd-\$1-trackdata clear;
#X msg 728 231 traverse pd-\$1-trackdata;
#X obj 659 296 append \$0-track a;
#X obj 55 198 track \$0-trackdata \$0-track b;
#X obj 55 223 track \$0-trackdata \$0-track c;
#X obj 55 246 track \$0-trackdata \$0-track d;
#X obj 55 270 track \$0-trackdata \$0-track e;
#X obj 55 295 track \$0-trackdata \$0-track f;
#X obj 55 320 track \$0-trackdata \$0-track g;
#X obj 55 343 track \$0-trackdata \$0-track h;
#X obj 659 154 t b b b;
#X obj 414 284 pointer;
#X msg 365 247 next;
#X msg 414 262 traverse pd-\$1;
#X obj 365 187 route clock reset;
#X msg 365 163 clock;
#X obj 659 125 loadbang;
#X obj 140 142 r \$0-position;
#X msg 427 163 reset;
#X obj 414 242 symbol \$0-trackdata;
#X obj 414 306 s \$0-position;
#X obj 226 374 print out;
#X msg 72 120 d 5 5;
#X obj 373 216 t b b;
#X obj 365 139 metro 200;
#X obj 400 87 tgl 15 0 empty empty empty 17 7 0 10 -262144 -1 -1 0
1;
#X obj 400 111 t f b;
#X msg 659 220 0;
#X obj 659 176 64;
#X obj 669 350;
#X connect 2 0 11 0;
#X connect 2 1 11 1;
#X connect 2 2 11 2;
#X connect 3 0 10 1;
#X connect 4 0 3 0;
#X connect 4 1 3 0;
#X connect 5 0 35 0;
#X connect 6 0 8 0;
#X connect 7 0 9 0;
#X connect 9 0 4 0;
#X connect 11 0 12 0;
#X connect 11 1 12 1;
#X connect 11 2 12 2;
#X connect 12 0 13 0;
#X connect 12 1 13 1;
#X connect 12 2 13 2;
#X connect 13 0 14 0;
#X connect 13 1 14 1;
#X connect 13 2 14 2;
#X connect 14 0 15 0;
#X connect 14 1 15 1;
#X connect 14 2 15 2;
#X connect 15 0 16 0;
#X connect 15 1 16 1;
#X connect 15 2 16 2;
#X connect 16 0 17 0;
#X connect 16 1 17 1;
#X connect 16 2 17 2;
#X connect 17 2 29 0;
#X connect 18 0 36 0;
#X connect 18 1 7 0;
#X connect 18 2 6 0;
#X connect 19 0 28 0;
#X connect 19 1 31 0;
#X connect 20 0 19 0;
#X connect 21 0 19 0;
#X connect 22 0 20 0;
#X connect 22 1 27 0;
#X connect 23 0 22 0;
#X connect 24 0 18 0;
#X connect 25 0 2 1;
#X connect 26 0 22 0;
#X connect 27 0 21 0;
#X connect 30 0 2 0;
#X connect 31 0 20 0;
#X connect 31 1 27 0;
#X connect 32 0 23 0;
#X connect 33 0 34 0;
#X connect 34 0 32 0;
#X connect 34 1 26 0;
#X connect 35 0 10 0;
#X connect 36 0 5 0;
