#N canvas 152 25 778 485 10;
#X msg 61 130 \$1 100;
#X obj 61 212 spigot;
#X obj 61 151 poly 4 1;
#X floatatom 76 63 5 0 0 0 - - -;
#X obj 61 106 i;
#X msg 34 63 note;
#X obj 34 85 t b;
#X obj 61 252 s \$0-voicebank;
#X obj 233 242 r \$0-voicebank;
#X obj 311 385 dac~;
#X msg 61 171 voice-\$1;
#X obj 61 191 pack s f;
#X msg 61 231 \$1 note \$2;
#X obj 233 262 list trim;
#X obj 222 124 s \$0-voicebank;
#X obj 282 407 s \$0-controls;
#X obj 233 284 voice-abs voice-1;
#X obj 233 305 voice-abs voice-2;
#X obj 233 326 voice-abs voice-3;
#X obj 233 347 voice-abs voice-4;
#X obj 217 78 controls;
#X obj 222 57 r \$0-controls;
#X connect 0 0 2 0;
#X connect 1 0 12 0;
#X connect 2 0 10 0;
#X connect 2 1 11 1;
#X connect 2 2 1 1;
#X connect 3 0 4 1;
#X connect 4 0 0 0;
#X connect 5 0 6 0;
#X connect 6 0 4 0;
#X connect 8 0 13 0;
#X connect 10 0 11 0;
#X connect 11 0 1 0;
#X connect 12 0 7 0;
#X connect 13 0 16 0;
#X connect 16 0 17 0;
#X connect 16 1 17 1;
#X connect 16 2 17 2;
#X connect 17 0 18 0;
#X connect 17 1 18 1;
#X connect 17 2 18 2;
#X connect 18 0 19 0;
#X connect 18 1 19 1;
#X connect 18 2 19 2;
#X connect 19 1 15 0;
#X connect 19 2 9 0;
#X connect 19 2 9 1;
#X connect 20 0 14 0;
#X connect 21 0 20 0;
