#N struct struct1 float x float y float xa float xb float ya float
yb float za float zb;
#N canvas -1746 219 753 393 10;
#X obj 549 289 pointer;
#X msg 549 233 traverse pd-datawindow1;
#N canvas -848 198 351 323 datawindow1 1;
#X scalar struct1 0 0 36 237 268 216 12 128 \;;
#X scalar struct1 0 0 25 173 292 79 284 106 \;;
#X scalar struct1 0 0 261 138 199 196 174 132 \;;
#X scalar struct1 0 0 255 141 25 13 231 202 \;;
#X scalar struct1 0 0 64 197 159 125 290 60 \;;
#X coords 0 323 1 322 0 0 0;
#X restore 65 198 pd datawindow1;
#X obj 549 258 t b a;
#X msg 532 185 \; pd-datawindow1 clear;
#N canvas -1289 232 450 300 template1 1;
#X obj 42 109 filledpolygon 60 1 1 xa xb ya yb za zb;
#X obj 42 62 struct struct1 float x float y float xa float xb float
ya float yb float za float zb;
#X restore 86 152 pd template1;
#X obj 358 191 until;
#X obj 358 169 t f b b;
#X obj 358 213 t b b b b b b;
#X obj 312 328 append struct1 xa xb ya yb za zb;
#X obj 272 272 random 300;
#X obj 324 242 random 300;
#X obj 349 268 random 300;
#X obj 395 238 random 300;
#X obj 435 269 random 300;
#X obj 468 242 random 300;
#X msg 378 147 5;
#X connect 0 0 9 6;
#X connect 1 0 3 0;
#X connect 3 0 0 0;
#X connect 3 1 0 0;
#X connect 6 0 8 0;
#X connect 7 0 6 0;
#X connect 7 1 1 0;
#X connect 7 2 4 0;
#X connect 8 0 10 0;
#X connect 8 1 11 0;
#X connect 8 2 12 0;
#X connect 8 3 13 0;
#X connect 8 4 14 0;
#X connect 8 5 15 0;
#X connect 10 0 9 0;
#X connect 11 0 9 1;
#X connect 12 0 9 2;
#X connect 13 0 9 3;
#X connect 14 0 9 4;
#X connect 15 0 9 5;
#X connect 16 0 7 0;
