#N struct 1002-track float a float b float c float d float e float
f float g float h;
#N canvas -1831 60 999 493 10;
#N canvas 0 0 450 300 \$0-trackdata 0;
#X scalar 1002-track 0 0 0 0 0 0 0 0 \;;
#X scalar 1002-track 0 0 0 0 0 0 0 0 \;;
#X scalar 1002-track 0 0 0 0 0 0 0 0 \;;
#X scalar 1002-track 0 0 0 0 0 0 0 0 \;;
#X scalar 1002-track 0 0 0 100 0 0 0 0 \;;
#X scalar 1002-track 0 0 0 0 0 0 0 0 \;;
#X scalar 1002-track 0 0 0 0 0 0 0 0 \;;
#X scalar 1002-track 0 0 0 0 0 0 0 0 \;;
#X scalar 1002-track 0 0 0 0 0 0 0 0 \;;
#X scalar 1002-track 0 0 0 0 0 0 0 0 \;;
#X scalar 1002-track 0 0 0 0 0 0 0 0 \;;
#X scalar 1002-track 0 0 0 0 0 0 0 0 \;;
#X scalar 1002-track 0 0 0 0 0 0 0 0 \;;
#X scalar 1002-track 0 0 0 0 0 0 0 0 \;;
#X scalar 1002-track 0 0 0 0 0 0 0 0 \;;
#X scalar 1002-track 0 0 0 0 0 0 0 0 \;;
#X scalar 1002-track 0 0 0 0 0 0 0 0 \;;
#X scalar 1002-track 0 0 0 0 0 0 0 0 \;;
#X scalar 1002-track 0 0 0 0 0 0 0 0 \;;
#X scalar 1002-track 0 0 0 0 0 0 0 0 \;;
#X scalar 1002-track 0 0 0 0 0 0 0 0 \;;
#X scalar 1002-track 0 0 0 0 0 0 0 0 \;;
#X scalar 1002-track 0 0 0 0 0 0 0 0 \;;
#X scalar 1002-track 0 0 0 0 0 0 0 0 \;;
#X scalar 1002-track 0 0 0 0 0 0 0 0 \;;
#X scalar 1002-track 0 0 0 0 0 0 0 0 \;;
#X scalar 1002-track 0 0 0 0 0 0 0 0 \;;
#X scalar 1002-track 0 0 0 0 0 0 0 0 \;;
#X scalar 1002-track 0 0 0 0 0 0 0 0 \;;
#X scalar 1002-track 0 0 0 0 0 0 0 0 \;;
#X scalar 1002-track 0 0 0 0 0 0 0 0 \;;
#X scalar 1002-track 0 0 0 0 0 0 0 0 \;;
#X scalar 1002-track 0 0 0 0 0 0 0 0 \;;
#X scalar 1002-track 0 0 0 0 0 0 0 0 \;;
#X scalar 1002-track 0 0 0 0 0 0 0 0 \;;
#X scalar 1002-track 0 0 0 0 0 0 0 0 \;;
#X scalar 1002-track 0 0 0 0 0 0 0 0 \;;
#X scalar 1002-track 0 0 0 0 0 0 0 0 \;;
#X scalar 1002-track 0 0 0 0 0 0 0 0 \;;
#X scalar 1002-track 0 0 0 0 0 0 0 0 \;;
#X scalar 1002-track 0 0 0 0 0 0 0 0 \;;
#X scalar 1002-track 0 0 0 0 0 0 0 0 \;;
#X scalar 1002-track 0 0 0 0 0 0 0 0 \;;
#X scalar 1002-track 0 0 0 0 0 0 0 0 \;;
#X scalar 1002-track 0 0 0 0 0 0 0 0 \;;
#X scalar 1002-track 0 0 0 0 0 0 0 0 \;;
#X scalar 1002-track 0 0 0 0 0 0 0 0 \;;
#X scalar 1002-track 0 0 0 0 0 0 0 0 \;;
#X scalar 1002-track 0 0 0 0 0 0 0 0 \;;
#X scalar 1002-track 0 0 0 0 0 0 0 0 \;;
#X scalar 1002-track 0 0 0 0 0 0 0 0 \;;
#X scalar 1002-track 0 0 0 0 0 0 0 0 \;;
#X scalar 1002-track 0 0 0 0 0 0 0 0 \;;
#X scalar 1002-track 0 0 0 0 0 0 0 0 \;;
#X scalar 1002-track 0 0 0 0 0 0 0 0 \;;
#X scalar 1002-track 0 0 0 0 0 0 0 0 \;;
#X scalar 1002-track 0 0 0 0 0 0 0 0 \;;
#X scalar 1002-track 0 0 0 0 0 0 0 0 \;;
#X scalar 1002-track 0 0 0 0 0 0 0 0 \;;
#X scalar 1002-track 0 0 0 0 0 0 0 0 \;;
#X scalar 1002-track 0 0 0 0 0 0 0 0 \;;
#X scalar 1002-track 0 0 0 0 0 0 0 0 \;;
#X scalar 1002-track 0 0 0 0 0 0 0 0 \;;
#X scalar 1002-track 0 0 0 0 0 0 0 0 \;;
#X restore 39 67 pd \$0-trackdata;
#N canvas 0 51 622 225 \$0-tracktemplate 0;
#X obj 99 40 struct \$0-track float a float b float c float d float
e float f float g float h;
#X restore 39 47 pd \$0-tracktemplate;
#X obj 55 173 track \$0-trackdata \$0-track a;
#X obj 482 270 pointer;
#X obj 482 239 t b a;
#X obj 413 179 until;
#X obj 524 151 \$0;
#X obj 482 185 \$0;
#X obj 226 374 print;
#X obj 413 93 bng 15 250 50 0 empty empty empty 17 7 0 10 -262144 -1
-1;
#X msg 413 150 64;
#X msg 524 174 \; pd-\$1-trackdata clear;
#X msg 482 214 traverse pd-\$1-trackdata;
#X obj 413 299 append \$0-track a;
#X obj 746 222 makefilename preset_%s.pdc;
#X obj 746 242 t s b;
#X obj 773 264 \$0;
#X obj 746 286 list prepend;
#X obj 746 202 symbol;
#X symbolatom 744 166 10 0 0 0 - - -;
#X msg 746 307 \; pd-\$1-trackdata write \$2;
#X obj 55 198 track \$0-trackdata \$0-track b;
#X obj 55 223 track \$0-trackdata \$0-track c;
#X obj 55 246 track \$0-trackdata \$0-track d;
#X obj 55 270 track \$0-trackdata \$0-track e;
#X obj 55 295 track \$0-trackdata \$0-track f;
#X obj 55 320 track \$0-trackdata \$0-track g;
#X obj 55 343 track \$0-trackdata \$0-track h;
#X obj 738 121 bng 15 250 50 0 empty empty empty 17 7 0 10 -262144
-1 -1;
#X obj 413 124 t b b b;
#X obj 413 222 0;
#X msg 141 121 d 5 100;
#X connect 2 0 21 0;
#X connect 2 1 21 1;
#X connect 2 2 21 2;
#X connect 3 0 13 1;
#X connect 4 0 3 0;
#X connect 4 1 3 0;
#X connect 5 0 30 0;
#X connect 6 0 11 0;
#X connect 7 0 12 0;
#X connect 9 0 29 0;
#X connect 10 0 5 0;
#X connect 12 0 4 0;
#X connect 14 0 15 0;
#X connect 15 0 17 0;
#X connect 15 1 16 0;
#X connect 16 0 17 1;
#X connect 17 0 20 0;
#X connect 18 0 14 0;
#X connect 19 0 18 0;
#X connect 21 0 22 0;
#X connect 21 1 22 1;
#X connect 21 2 22 2;
#X connect 22 0 23 0;
#X connect 22 1 23 1;
#X connect 22 2 23 2;
#X connect 23 0 24 0;
#X connect 23 1 24 1;
#X connect 23 2 24 2;
#X connect 24 0 25 0;
#X connect 24 1 25 1;
#X connect 24 2 25 2;
#X connect 25 0 26 0;
#X connect 25 1 26 1;
#X connect 25 2 26 2;
#X connect 26 0 27 0;
#X connect 26 1 27 1;
#X connect 26 2 27 2;
#X connect 27 2 8 0;
#X connect 28 0 19 0;
#X connect 29 0 10 0;
#X connect 29 1 7 0;
#X connect 29 2 6 0;
#X connect 30 0 13 0;
#X connect 31 0 2 0;
