#N canvas -1434 513 692 445 10;
#X obj 65 95 inlet;
#X obj 351 134 inlet;
#X obj 65 174 unpack f f;
#X obj 65 199 swap;
#X obj 145 295 pointer;
#X msg 105 268 next;
#X obj 201 294 bng 15 250 50 0 empty empty empty 17 7 0 10 -262144
-1 -1;
#X obj 86 224 t b f b;
#X obj 105 246 until;
#X obj 86 322 pointer;
#X obj 145 248 symbol \$1;
#X msg 145 268 traverse pd-\$1;
#X obj 65 350 set \$2 \$3;
#X obj 400 185 get \$2 \$3;
#X text 155 23 arguments are:;
#X text 250 23 \$1 - name of data window;
#X text 250 38 \$2 - name of data structure;
#X text 250 53 \$3 - name of data structure element;
#X obj 351 156 t p p;
#X obj 351 208 outlet;
#X obj 391 134 inlet;
#X obj 391 331 outlet;
#X obj 400 241 symbol \$3;
#X obj 400 209 t b f;
#X obj 400 265 pack s f;
#X obj 65 129 route \$3;
#X obj 110 152 outlet;
#X text 26 71 input is (element \, step \, value);
#X obj 200 190 print \$3;
#X connect 0 0 25 0;
#X connect 1 0 18 0;
#X connect 2 0 3 0;
#X connect 2 1 3 1;
#X connect 3 0 12 0;
#X connect 3 1 7 0;
#X connect 4 0 9 1;
#X connect 4 1 6 0;
#X connect 5 0 4 0;
#X connect 6 0 8 1;
#X connect 7 0 9 0;
#X connect 7 1 8 0;
#X connect 7 2 10 0;
#X connect 8 0 5 0;
#X connect 9 0 12 1;
#X connect 10 0 11 0;
#X connect 11 0 4 0;
#X connect 13 0 23 0;
#X connect 18 0 19 0;
#X connect 18 1 13 0;
#X connect 20 0 21 0;
#X connect 22 0 24 0;
#X connect 23 0 22 0;
#X connect 23 1 24 1;
#X connect 24 0 21 0;
#X connect 25 0 2 0;
#X connect 25 0 28 0;
#X connect 25 1 26 0;
