#N canvas 649 39 450 296 10;
#X obj 257 60 inlet;
#X obj 284 107 outlet;
#X obj 257 152 s \$1-\$2-set;
#X obj 105 123 r \$1-\$2-get;
#X obj 180 102 outlet;
#X obj 141 50 inlet;
#X obj 90 184 set \$3 \$2;
#X obj 90 160 f;
#X obj 141 73 t p b p;
#X obj 257 129 get \$3 \$2;
#X obj 257 83 t p p;
#X floatatom 212 156 5 0 0 0 - - -;
#X floatatom 34 168 5 0 0 0 - - -;
#X floatatom 34 200 5 0 0 0 - - -;
#X connect 0 0 10 0;
#X connect 3 0 7 1;
#X connect 3 0 12 0;
#X connect 5 0 8 0;
#X connect 7 0 6 0;
#X connect 7 0 13 0;
#X connect 8 0 6 1;
#X connect 8 1 7 0;
#X connect 8 2 4 0;
#X connect 9 0 2 0;
#X connect 9 0 11 0;
#X connect 10 0 9 0;
#X connect 10 1 1 0;
