#N struct 1004-track float a float b float c float d float e float
f float g float h;
#N canvas -1668 395 867 540 10;
#N canvas 0 0 450 300 \$0-trackdata 0;
#X scalar 1004-track 0 0 1 0 0 0 0 0 \;;
#X scalar 1004-track 0 0 1 0 0 0 0 0 \;;
#X scalar 1004-track 0 0 1 0 0 0 0 0 \;;
#X scalar 1004-track 0 0 1 0 0 0 0 1 \;;
#X scalar 1004-track 0 0 1 0 0 0 0 0 \;;
#X scalar 1004-track 0 0 1 0 0 0 0 0 \;;
#X scalar 1004-track 0 0 1 0 0 0 0 0 \;;
#X scalar 1004-track 0 0 1 0 0 0 0 1 \;;
#X scalar 1004-track 0 0 1 0 0 0 0 0 \;;
#X scalar 1004-track 0 0 1 0 0 0 0 0 \;;
#X scalar 1004-track 0 0 1 0 0 0 0 0 \;;
#X scalar 1004-track 0 0 1 0 0 0 0 1 \;;
#X scalar 1004-track 0 0 1 0 0 0 0 0 \;;
#X scalar 1004-track 0 0 1 0 0 0 0 0 \;;
#X scalar 1004-track 0 0 1 0 0 0 0 0 \;;
#X scalar 1004-track 0 0 1 0 0 0 0 1 \;;
#X scalar 1004-track 0 0 1 0 0 0 0 0 \;;
#X scalar 1004-track 0 0 1 0 0 0 0 0 \;;
#X scalar 1004-track 0 0 1 0 0 0 0 0 \;;
#X scalar 1004-track 0 0 1 0 0 0 0 1 \;;
#X scalar 1004-track 0 0 1 0 0 0 0 0 \;;
#X scalar 1004-track 0 0 1 0 0 0 0 0 \;;
#X scalar 1004-track 0 0 1 0 0 0 0 0 \;;
#X scalar 1004-track 0 0 1 0 0 0 0 1 \;;
#X scalar 1004-track 0 0 1 0 0 0 0 0 \;;
#X scalar 1004-track 0 0 1 0 0 0 0 0 \;;
#X scalar 1004-track 0 0 1 0 0 0 0 0 \;;
#X scalar 1004-track 0 0 1 0 0 0 0 1 \;;
#X scalar 1004-track 0 0 1 0 0 0 0 0 \;;
#X scalar 1004-track 0 0 1 0 0 0 0 0 \;;
#X scalar 1004-track 0 0 1 0 0 0 0 0 \;;
#X scalar 1004-track 0 0 1 0 0 0 0 1 \;;
#X scalar 1004-track 0 0 1 0 0 0 0 0 \;;
#X scalar 1004-track 0 0 0 0 0 0 0 0 \;;
#X scalar 1004-track 0 0 1 0 0 0 0 0 \;;
#X scalar 1004-track 0 0 1 0 0 0 0 1 \;;
#X scalar 1004-track 0 0 1 0 0 0 0 0 \;;
#X scalar 1004-track 0 0 1 0 0 0 0 0 \;;
#X scalar 1004-track 0 0 1 0 0 0 0 0 \;;
#X scalar 1004-track 0 0 1 0 0 0 0 1 \;;
#X scalar 1004-track 0 0 1 0 0 0 0 0 \;;
#X scalar 1004-track 0 0 1 0 0 0 0 0 \;;
#X scalar 1004-track 0 0 1 0 0 0 0 0 \;;
#X scalar 1004-track 0 0 1 0 0 0 0 1 \;;
#X scalar 1004-track 0 0 1 0 0 0 0 0 \;;
#X scalar 1004-track 0 0 1 0 0 0 0 0 \;;
#X scalar 1004-track 0 0 1 0 0 0 0 0 \;;
#X scalar 1004-track 0 0 1 0 0 0 0 1 \;;
#X scalar 1004-track 0 0 1 0 0 0 0 0 \;;
#X scalar 1004-track 0 0 1 0 0 0 0 0 \;;
#X scalar 1004-track 0 0 1 0 0 0 0 0 \;;
#X scalar 1004-track 0 0 1 0 0 0 0 1 \;;
#X scalar 1004-track 0 0 1 0 0 0 0 0 \;;
#X scalar 1004-track 0 0 1 0 0 0 0 0 \;;
#X scalar 1004-track 0 0 1 0 0 0 0 0 \;;
#X scalar 1004-track 0 0 1 0 0 0 0 1 \;;
#X scalar 1004-track 0 0 1 0 0 0 0 0 \;;
#X scalar 1004-track 0 0 1 0 0 0 0 0 \;;
#X scalar 1004-track 0 0 1 0 0 0 0 0 \;;
#X scalar 1004-track 0 0 1 0 0 0 0 1 \;;
#X scalar 1004-track 0 0 1 0 0 0 0 0 \;;
#X scalar 1004-track 0 0 1 0 0 0 0 0 \;;
#X scalar 1004-track 0 0 1 0 0 0 0 0 \;;
#X scalar 1004-track 0 0 1 0 0 0 0 1 \;;
#X restore 356 100 pd \$0-trackdata;
#N canvas 0 51 622 225 \$0-tracktemplate 0;
#X obj 99 40 struct \$0-track float a float b float c float d float
e float f float g float h;
#X restore 356 80 pd \$0-tracktemplate;
#X obj 91 275 track \$0-trackdata \$0-track a;
#X obj 454 290 pointer;
#X msg 405 253 next;
#X msg 454 268 traverse pd-\$1;
#X obj 405 193 route clock reset;
#X obj 176 252 r \$0-position;
#X obj 454 248 symbol \$0-trackdata;
#X obj 454 312 s \$0-position;
#X obj 413 222 t b b;
#X obj 405 171 inlet;
#X obj 262 476 outlet;
#X obj 91 217 list prepend;
#N canvas -1029 414 326 278 setup 0;
#X obj 117 182 pointer;
#X obj 117 161 t b a;
#X obj 48 106 until;
#X obj 159 84 \$0;
#X obj 117 116 \$0;
#X msg 159 105 \; pd-\$1-trackdata clear;
#X msg 117 139 traverse pd-\$1-trackdata;
#X obj 48 204 append \$0-track a;
#X obj 48 62 t b b b;
#X obj 48 38 loadbang;
#X msg 48 128 0;
#X obj 48 84 \$1;
#X obj 15 40 bng 15 250 50 0 empty empty empty 17 7 0 10 -262144 -1
-1;
#X connect 0 0 7 1;
#X connect 1 0 0 0;
#X connect 1 1 0 0;
#X connect 2 0 10 0;
#X connect 3 0 5 0;
#X connect 4 0 6 0;
#X connect 6 0 1 0;
#X connect 8 0 11 0;
#X connect 8 1 4 0;
#X connect 8 2 3 0;
#X connect 9 0 8 0;
#X connect 10 0 7 0;
#X connect 11 0 2 0;
#X connect 12 0 8 0;
#X restore 356 60 pd setup;
#X obj 91 175 + 1;
#X obj 194 120 route 0 1 2 3 4 5 6 7;
#X msg 194 143 a;
#X msg 209 164 b;
#X msg 240 164 b;
#X msg 224 143 c;
#X msg 255 143 e;
#X msg 270 164 f;
#X msg 286 143 g;
#X msg 301 164 h;
#X obj 151 32 inlet;
#X obj 151 56 route grid mode;
#X obj 194 78 unpack;
#X obj 194 100 spigot;
#X obj 91 242 list trim;
#X obj 91 112 unpack f f f;
#X obj 91 196 spigot;
#X obj 125 133 * 8;
#X obj 91 154 +;
#X obj 91 300 track \$0-trackdata \$0-track b;
#X obj 91 325 track \$0-trackdata \$0-track c;
#X obj 91 348 track \$0-trackdata \$0-track d;
#X obj 91 372 track \$0-trackdata \$0-track e;
#X obj 91 397 track \$0-trackdata \$0-track f;
#X obj 91 422 track \$0-trackdata \$0-track g;
#X obj 91 445 track \$0-trackdata \$0-track h;
#X connect 2 0 34 0;
#X connect 2 1 34 1;
#X connect 2 2 34 2;
#X connect 3 0 9 0;
#X connect 3 1 10 0;
#X connect 4 0 3 0;
#X connect 5 0 3 0;
#X connect 6 0 4 0;
#X connect 6 1 8 0;
#X connect 7 0 2 1;
#X connect 8 0 5 0;
#X connect 10 0 4 0;
#X connect 10 1 8 0;
#X connect 11 0 6 0;
#X connect 13 0 29 0;
#X connect 15 0 31 0;
#X connect 16 0 17 0;
#X connect 16 1 18 0;
#X connect 16 2 20 0;
#X connect 16 3 19 0;
#X connect 16 4 21 0;
#X connect 16 5 22 0;
#X connect 16 6 23 0;
#X connect 16 7 24 0;
#X connect 17 0 13 1;
#X connect 18 0 13 1;
#X connect 19 0 13 1;
#X connect 20 0 13 1;
#X connect 21 0 13 1;
#X connect 22 0 13 1;
#X connect 23 0 13 1;
#X connect 24 0 13 1;
#X connect 25 0 26 0;
#X connect 26 0 30 0;
#X connect 26 1 27 0;
#X connect 27 0 28 0;
#X connect 27 1 28 1;
#X connect 28 0 16 0;
#X connect 29 0 2 0;
#X connect 30 0 33 0;
#X connect 30 1 32 0;
#X connect 30 2 31 1;
#X connect 31 0 13 0;
#X connect 32 0 33 1;
#X connect 33 0 15 0;
#X connect 34 0 35 0;
#X connect 34 1 35 1;
#X connect 34 2 35 2;
#X connect 35 0 36 0;
#X connect 35 1 36 1;
#X connect 35 2 36 2;
#X connect 36 0 37 0;
#X connect 36 1 37 1;
#X connect 36 2 37 2;
#X connect 37 0 38 0;
#X connect 37 1 38 1;
#X connect 37 2 38 2;
#X connect 38 0 39 0;
#X connect 38 1 39 1;
#X connect 38 2 39 2;
#X connect 39 0 40 0;
#X connect 39 1 40 1;
#X connect 39 2 40 2;
#X connect 40 2 12 0;
