#N canvas -945 276 692 564 10;
#X obj 78 102 inlet;
#X obj 351 134 inlet;
#X obj 137 260 pointer;
#X msg 97 233 next;
#X obj 193 259 bng 15 250 50 0 empty empty empty 17 7 0 10 -262144
-1 -1;
#X obj 78 189 t b f b;
#X obj 97 211 until;
#X obj 78 285 pointer;
#X obj 137 213 symbol \$1;
#X msg 137 233 traverse pd-\$1;
#X obj 54 424 set \$2 \$3;
#X obj 400 185 get \$2 \$3;
#X text 155 23 arguments are:;
#X text 250 23 \$1 - name of data window;
#X text 250 38 \$2 - name of data structure;
#X text 250 53 \$3 - name of data structure element;
#X obj 351 156 t p p;
#X obj 351 208 outlet;
#X obj 391 134 inlet;
#X obj 391 331 outlet;
#X obj 400 241 symbol \$3;
#X obj 400 209 t b f;
#X obj 400 265 pack s f;
#X obj 78 136 route \$3;
#X obj 123 159 outlet;
#X obj 47 337 get \$2 \$3;
#X obj 78 309 t p p;
#X obj 47 358 sel 0 1;
#X msg 47 386 1;
#X msg 77 386 0;
#X text 39 78 input is (element \, step);
#X connect 0 0 23 0;
#X connect 1 0 16 0;
#X connect 2 0 7 1;
#X connect 2 1 4 0;
#X connect 3 0 2 0;
#X connect 4 0 6 1;
#X connect 5 0 7 0;
#X connect 5 1 6 0;
#X connect 5 2 8 0;
#X connect 6 0 3 0;
#X connect 7 0 26 0;
#X connect 8 0 9 0;
#X connect 9 0 2 0;
#X connect 11 0 21 0;
#X connect 16 0 17 0;
#X connect 16 1 11 0;
#X connect 18 0 19 0;
#X connect 20 0 22 0;
#X connect 21 0 20 0;
#X connect 21 1 22 1;
#X connect 22 0 19 0;
#X connect 23 0 5 0;
#X connect 23 1 24 0;
#X connect 25 0 27 0;
#X connect 26 0 25 0;
#X connect 26 1 10 1;
#X connect 27 0 28 0;
#X connect 27 1 29 0;
#X connect 28 0 10 0;
#X connect 29 0 10 0;
