#N canvas 184 25 778 445 10;
#X floatatom 405 69 5 0 0 0 - - -;
#X msg 405 89 mod-ratio \$1;
#X floatatom 493 69 5 0 0 0 - - -;
#X floatatom 587 69 5 0 0 0 - - -;
#X msg 493 89 mod-amount \$1;
#X floatatom 360 67 5 0 0 0 - - -;
#X obj 571 195 list prepend;
#X obj 196 71 vradio 15 1 0 4 empty empty empty 0 -8 0 10 -262144 -1
-1 0;
#X obj 318 142 list append;
#X obj 345 121 i;
#X obj 318 100 t a b;
#X msg 587 89 attack \$1;
#X floatatom 661 67 5 0 0 0 - - -;
#X msg 661 88 decay \$1;
#X msg 48 136 \$1 100;
#X obj 48 218 spigot;
#X obj 48 157 poly 4 1;
#X msg 229 72 all;
#X obj 196 136 + 1;
#X msg 318 67 note;
#X floatatom 63 69 5 0 0 0 - - -;
#X obj 48 112 i;
#X msg 21 69 note;
#X obj 21 91 t b;
#X obj 139 115 loadbang;
#X msg 139 137 1;
#X obj 48 258 s \$0-voicebank;
#X obj 217 258 r \$0-voicebank;
#X obj 295 386 dac~;
#X msg 196 162 voice-\$1;
#X msg 48 177 voice-\$1;
#X obj 48 197 pack s f;
#X msg 48 237 \$1 note \$2;
#X obj 217 278 list trim;
#X obj 571 215 s \$0-voicebank;
#X text 170 47 voice select;
#X obj 196 188 s \$0-voicename;
#X obj 640 173 r \$0-voicename;
#X obj 217 299 voice-abs voice-1;
#X obj 217 320 voice-abs voice-2;
#X obj 217 341 voice-abs voice-3;
#X obj 217 362 voice-abs voice-4;
#X connect 0 0 1 0;
#X connect 1 0 6 0;
#X connect 2 0 4 0;
#X connect 3 0 11 0;
#X connect 4 0 6 0;
#X connect 5 0 9 1;
#X connect 6 0 34 0;
#X connect 7 0 18 0;
#X connect 8 0 6 0;
#X connect 9 0 8 1;
#X connect 10 0 8 0;
#X connect 10 1 9 0;
#X connect 11 0 6 0;
#X connect 12 0 13 0;
#X connect 13 0 6 0;
#X connect 14 0 16 0;
#X connect 15 0 32 0;
#X connect 16 0 30 0;
#X connect 16 1 31 1;
#X connect 16 2 15 1;
#X connect 17 0 36 0;
#X connect 18 0 29 0;
#X connect 19 0 10 0;
#X connect 20 0 21 1;
#X connect 21 0 14 0;
#X connect 22 0 23 0;
#X connect 23 0 21 0;
#X connect 24 0 25 0;
#X connect 25 0 29 0;
#X connect 27 0 33 0;
#X connect 29 0 36 0;
#X connect 30 0 31 0;
#X connect 31 0 15 0;
#X connect 32 0 26 0;
#X connect 33 0 38 0;
#X connect 37 0 6 1;
#X connect 38 0 39 0;
#X connect 38 1 39 1;
#X connect 39 0 40 0;
#X connect 39 1 40 1;
#X connect 40 0 41 0;
#X connect 40 1 41 1;
#X connect 41 1 28 0;
#X connect 41 1 28 1;
