#N canvas 184 25 778 445 10;
#X floatatom 405 69 5 0 0 0 - - -;
#X msg 405 89 mod-ratio \$1;
#X floatatom 493 69 5 0 0 0 - - -;
#X floatatom 587 69 5 0 0 0 - - -;
#X msg 493 89 mod-amount \$1;
#X floatatom 360 67 5 0 0 0 - - -;
#X obj 571 195 list prepend;
#X obj 196 71 vradio 15 1 0 4 empty empty empty 0 -8 0 10 -262144 -1
-1 3;
#X obj 196 168 s \$0-voicenum;
#X obj 640 154 r \$0-voicenum;
#X obj 318 142 list append;
#X obj 345 121 i;
#X obj 318 100 t a b;
#X msg 587 89 attack \$1;
#X floatatom 661 67 5 0 0 0 - - -;
#X msg 661 88 decay \$1;
#X msg 61 130 \$1 100;
#X obj 61 212 spigot;
#X obj 61 151 poly 4 1;
#X msg 229 112 all;
#X obj 196 136 + 1;
#X msg 318 67 note;
#X floatatom 76 63 5 0 0 0 - - -;
#X obj 61 106 i;
#X msg 34 63 note;
#X obj 34 85 t b;
#X obj 139 115 loadbang;
#X msg 139 137 1;
#X obj 61 252 s \$0-voicebank;
#X obj 217 258 r \$0-voicebank;
#X obj 259 389 dac~;
#X msg 640 174 voice-\$1;
#X msg 61 171 voice-\$1;
#X obj 61 191 pack s f;
#X msg 61 231 \$1 note \$2;
#X obj 217 278 list trim;
#X obj 571 215 s \$0-voicebank;
#X obj 217 299 voice-abs 1;
#X obj 229 137 symbol;
#X obj 217 320 voice-abs 2;
#X obj 217 341 voice-abs 3;
#X obj 217 362 voice-abs 4;
#X connect 0 0 1 0;
#X connect 1 0 6 0;
#X connect 2 0 4 0;
#X connect 3 0 13 0;
#X connect 4 0 6 0;
#X connect 5 0 11 1;
#X connect 6 0 36 0;
#X connect 7 0 20 0;
#X connect 9 0 31 0;
#X connect 10 0 6 0;
#X connect 11 0 10 1;
#X connect 12 0 10 0;
#X connect 12 1 11 0;
#X connect 13 0 6 0;
#X connect 14 0 15 0;
#X connect 15 0 6 0;
#X connect 16 0 18 0;
#X connect 17 0 34 0;
#X connect 18 0 32 0;
#X connect 18 1 33 1;
#X connect 18 2 17 1;
#X connect 19 0 38 0;
#X connect 20 0 8 0;
#X connect 21 0 12 0;
#X connect 22 0 23 1;
#X connect 23 0 16 0;
#X connect 24 0 25 0;
#X connect 25 0 23 0;
#X connect 26 0 27 0;
#X connect 27 0 8 0;
#X connect 29 0 35 0;
#X connect 31 0 6 1;
#X connect 32 0 33 0;
#X connect 33 0 17 0;
#X connect 34 0 28 0;
#X connect 35 0 37 0;
#X connect 37 0 39 0;
#X connect 37 1 39 1;
#X connect 38 0 8 0;
#X connect 39 0 40 0;
#X connect 39 1 40 1;
#X connect 40 0 41 0;
#X connect 40 1 41 1;
#X connect 41 1 30 0;
#X connect 41 1 30 1;
