#N canvas -1359 303 558 469 10;
#X obj 385 149 pointer;
#X floatatom 268 149 5 0 0 0 - - -;
#X obj 265 320 pointer;
#X floatatom 265 399 5 0 0 0 - - -;
#X msg 232 289 next;
#X obj 304 350 bng 15 250 50 0 empty empty empty 17 7 0 10 -262144
-1 -1;
#X obj 385 118 t b a;
#X obj 265 263 t b a;
#X floatatom 307 149 5 0 0 0 - - -;
#X floatatom 346 149 5 0 0 0 - - -;
#X floatatom 314 399 5 0 0 0 - - -;
#X floatatom 364 399 5 0 0 0 - - -;
#X obj 33 216 loadbang;
#X msg 385 93 traverse pd-datawindow2;
#N canvas 0 0 450 300 datawindow2 0;
#X restore 31 176 pd datawindow2;
#X msg 33 243 \; pd-datawindow2 clear;
#X msg 265 240 traverse pd-datawindow2;
#X obj 268 205 append struct2 a b c;
#X obj 265 373 get struct2 a b c;
#N canvas 0 405 450 300 template2 0;
#X obj 125 73 struct struct2 float a float b float c;
#X restore 31 145 pd template2;
#X connect 0 0 17 3;
#X connect 1 0 17 0;
#X connect 2 0 18 0;
#X connect 2 1 5 0;
#X connect 4 0 2 0;
#X connect 6 0 0 0;
#X connect 6 1 0 0;
#X connect 7 0 4 0;
#X connect 7 1 2 0;
#X connect 8 0 17 1;
#X connect 9 0 17 2;
#X connect 12 0 15 0;
#X connect 13 0 6 0;
#X connect 16 0 7 0;
#X connect 18 0 3 0;
#X connect 18 1 10 0;
#X connect 18 2 11 0;
