#N canvas -1273 255 558 469 10;
#X obj 362 167 pointer;
#X floatatom 269 160 5 0 0 0 - - -;
#X obj 270 329 pointer;
#X floatatom 270 408 5 0 0 0 - - -;
#X msg 237 298 next;
#X msg 362 111 traverse pd-datawindow1;
#X obj 269 216 append struct1 a;
#X msg 270 249 traverse pd-datawindow1;
#X obj 270 382 get struct1 a;
#X obj 309 359 bng 15 250 50 0 empty empty empty 17 7 0 10 -262144
-1 -1;
#N canvas 0 0 450 300 datawindow1 0;
#X restore 42 170 pd datawindow1;
#X obj 362 136 t b a;
#X obj 270 272 t b a;
#X msg 45 240 \; pd-datawindow1 clear;
#X msg 404 135 next;
#N canvas 0 348 450 300 template1 0;
#X obj 125 73 struct struct1 float a;
#X restore 42 139 pd template1;
#X connect 0 0 6 1;
#X connect 1 0 6 0;
#X connect 2 0 8 0;
#X connect 2 1 9 0;
#X connect 4 0 2 0;
#X connect 5 0 11 0;
#X connect 7 0 12 0;
#X connect 8 0 3 0;
#X connect 11 0 0 0;
#X connect 11 1 0 0;
#X connect 12 0 4 0;
#X connect 12 1 2 0;
#X connect 14 0 0 0;
