#N canvas -1641 248 910 586 10;
#X obj 374 189 lmatch 1 1;
#X obj 76 71 t l b;
#X obj 224 77 t l b;
#X obj 332 226 interleave 1 1;
#X obj 577 294 list length;
#X obj 558 266 t l l b;
#X obj 577 331 /;
#X obj 348 252 v \$0-mainellen;
#X obj 393 104 v \$0-mainellen;
#X obj 431 168 v \$0-subellen;
#X obj 412 146 t l b;
#X obj 374 82 t l b;
#X obj 431 209 v \$0-remellen;
#X obj 558 440 s \$0-remainder;
#X obj 668 295 v \$0-remellen;
#X obj 419 277 r \$0-remainder;
#X obj 412 125 r \$0-sublist;
#X obj 374 61 r \$0-mainlist;
#X obj 577 353 < 2;
#X obj 577 417 s \$0-recur;
#X obj 442 316 r \$0-recur;
#X msg 577 395 recur;
#X msg 621 395 output;
#X obj 398 410 route recur output;
#X obj 398 506 s \$0-sublist;
#X obj 289 478 list;
#X obj 281 275 r \$0-recur;
#X obj 262 374 route recur output;
#X obj 262 396 s \$0-mainlist;
#X obj 289 510 print output;
#X obj 398 430 t l b;
#X obj 425 453 v \$0-remellen;
#X obj 425 476 v \$0-subellen;
#X obj 251 99 1;
#X obj 251 120 v \$0-subellen;
#X obj 103 113 v \$0-mainellen;
#X obj 103 92 1;
#X obj 224 140 s \$0-sublist;
#X obj 76 141 s \$0-mainlist;
#X obj 577 373 sel 0 1;
#X obj 247 300 list prepend;
#X obj 407 340 list prepend;
#X obj 254 338 list trim;
#X obj 404 376 list trim;
#X msg 76 29 1 1 1 1 1 1;
#X msg 224 34 0 0 0;
#X connect 0 0 3 0;
#X connect 0 1 3 1;
#X connect 0 2 3 2;
#X connect 0 3 3 3;
#X connect 0 4 5 0;
#X connect 0 5 12 0;
#X connect 1 0 38 0;
#X connect 1 1 36 0;
#X connect 2 0 37 0;
#X connect 2 1 33 0;
#X connect 3 0 40 0;
#X connect 3 1 7 0;
#X connect 4 0 6 0;
#X connect 5 0 13 0;
#X connect 5 1 4 0;
#X connect 5 2 14 0;
#X connect 6 0 18 0;
#X connect 8 0 0 1;
#X connect 9 0 0 3;
#X connect 10 0 0 2;
#X connect 10 1 9 0;
#X connect 11 0 0 0;
#X connect 11 1 8 0;
#X connect 14 0 6 1;
#X connect 15 0 41 0;
#X connect 16 0 10 0;
#X connect 17 0 11 0;
#X connect 18 0 39 0;
#X connect 20 0 41 1;
#X connect 21 0 19 0;
#X connect 22 0 19 0;
#X connect 23 0 30 0;
#X connect 23 1 25 1;
#X connect 25 0 29 0;
#X connect 26 0 40 1;
#X connect 27 0 28 0;
#X connect 27 1 25 0;
#X connect 30 0 24 0;
#X connect 30 1 31 0;
#X connect 31 0 32 0;
#X connect 33 0 34 0;
#X connect 36 0 35 0;
#X connect 39 0 21 0;
#X connect 39 1 22 0;
#X connect 40 0 42 0;
#X connect 41 0 43 0;
#X connect 42 0 27 0;
#X connect 43 0 23 0;
#X connect 44 0 1 0;
#X connect 45 0 2 0;
