#N canvas -1158 526 450 300 10;
#X floatatom 204 82 5 0 0 0 - - -;
#X floatatom 134 81 5 0 0 0 - - -;
#X obj 149 138 erhythms;
#X obj 149 186 print pattern;
#X connect 0 0 2 1;
#X connect 1 0 2 0;
#X connect 2 0 3 0;
