#N canvas -1208 210 955 606 10;
#X obj 447 156 list;
#X obj 657 156 list;
#X obj 533 323 list prepend;
#X obj 214 316 list append;
#X obj 533 349 t a;
#X obj 512 373 list;
#X obj 512 275 t b b;
#X obj 177 133 list;
#X obj 214 383 s \$0-done;
#X obj 512 254 r \$0-done;
#X obj 310 382 s \$0-elout;
#X obj 533 300 r \$0-elout;
#X obj 454 70 r \$0-mainlist;
#X obj 20 145 s \$0-mainlist;
#X obj 665 69 r \$0-sublist;
#X obj 177 155 s \$0-sublist;
#X obj 447 49 r \$0-get-next-mainel;
#X obj 657 47 r \$0-get-next-subel;
#X obj 454 178 s \$0-next-mainel;
#X obj 665 178 s \$0-next-subel;
#X obj 214 276 r \$0-next-mainel;
#X obj 277 296 r \$0-next-subel;
#X obj 214 338 route bang;
#X obj 271 361 t b b a;
#X obj 271 422 s \$0-get-next-mainel;
#X obj 290 402 s \$0-get-next-subel;
#X obj 529 156 t a b;
#X obj 740 156 t a b;
#X obj 454 136 list split \$1;
#X obj 665 135 list split \$2;
#X obj 266 66 inlet;
#X obj 92 52 inlet;
#X obj 198 80 inlet;
#X obj 20 60 inlet;
#X obj 512 463 outlet;
#X obj 92 76 v \$0-mainellen;
#X obj 266 90 v \$0-subellen;
#X obj 454 93 t l b;
#X obj 665 91 t l b;
#X obj 740 114 v \$0-subellen;
#X obj 529 115 v \$0-mainellen;
#X obj 512 398 t l b b;
#X obj 561 424 v \$0-mainellen;
#X obj 561 465 +;
#X obj 561 486 outlet;
#X obj 20 88 t a b b;
#X obj 59 117 s \$0-reset;
#X obj 562 349 r \$0-reset;
#X obj 576 445 v \$0-subellen;
#X connect 0 0 37 0;
#X connect 1 0 38 0;
#X connect 2 0 4 0;
#X connect 3 0 22 0;
#X connect 4 0 2 1;
#X connect 4 0 5 1;
#X connect 5 0 41 0;
#X connect 6 0 5 0;
#X connect 6 1 2 1;
#X connect 7 0 15 0;
#X connect 9 0 6 0;
#X connect 11 0 2 0;
#X connect 12 0 37 0;
#X connect 14 0 38 0;
#X connect 16 0 0 0;
#X connect 17 0 1 0;
#X connect 20 0 3 0;
#X connect 21 0 3 1;
#X connect 22 0 8 0;
#X connect 22 1 23 0;
#X connect 23 0 24 0;
#X connect 23 1 25 0;
#X connect 23 2 10 0;
#X connect 26 0 18 0;
#X connect 26 1 0 1;
#X connect 27 0 19 0;
#X connect 27 1 1 1;
#X connect 28 0 18 0;
#X connect 28 1 0 1;
#X connect 28 2 26 0;
#X connect 29 0 19 0;
#X connect 29 1 1 1;
#X connect 29 2 27 0;
#X connect 30 0 36 0;
#X connect 31 0 35 0;
#X connect 32 0 7 1;
#X connect 33 0 45 0;
#X connect 37 0 28 0;
#X connect 37 1 40 0;
#X connect 38 0 29 0;
#X connect 38 1 39 0;
#X connect 39 0 29 1;
#X connect 40 0 28 1;
#X connect 41 0 34 0;
#X connect 41 1 42 0;
#X connect 41 2 48 0;
#X connect 42 0 43 0;
#X connect 43 0 44 0;
#X connect 45 0 13 0;
#X connect 45 1 7 0;
#X connect 45 2 46 0;
#X connect 47 0 5 1;
#X connect 48 0 43 1;
