#N canvas 52 38 597 462 10;
#X obj 24 331 list prepend;
#X obj 342 126 i;
#X msg 464 281 all;
#X obj 330 262 + 1;
#X obj 358 241 loadbang;
#X msg 358 262 1;
#X obj 464 302 symbol;
#X obj 330 284 t b f;
#X msg 330 346 dump;
#X msg 357 305 voice-\$1;
#X obj 464 323 s \$0-voice-name;
#X obj 93 310 r \$0-voice-name;
#X floatatom 123 39 5 0 0 0 - #0-mod-ratio-set #0-mod-ratio-get;
#X obj 92 40 bng 15 250 50 0 \$0-all-select empty empty 17 7 0 10 -262144
-1 -1;
#X obj 330 219 r \$0-voice-num-set;
#X obj 357 325 s \$0-voice-name;
#X text 91 22 all;
#X text 36 21 voice;
#X obj 27 40 hradio 15 1 0 4 \$0-voice-num-set empty empty 0 -8 0 10
-262144 -1 -1 0;
#X obj 464 260 r \$0-all-select;
#X text 121 21 mod-ratio;
#X floatatom 183 39 5 0 0 0 - #0-mod-amount-set #0-mod-amount-get;
#X text 181 21 mod-amount;
#X obj 24 113 list trim;
#X obj 24 133 control-param \$0 attack;
#X obj 24 154 control-param \$0 decay;
#X obj 24 175 control-param \$0 note;
#X obj 24 197 control-param \$0 mod-ratio;
#X obj 24 218 control-param \$0 mod-amount;
#X obj 183 239 s \$0-to-voicebank;
#X obj 24 93 inlet;
#X floatatom 249 39 5 0 0 0 - #0-attack-set #0-attack-get;
#X floatatom 291 39 5 0 0 0 - #0-decay-set #0-decay-get;
#X text 248 22 attack;
#X text 290 22 decay;
#X obj 24 288 r \$0-to-voicebank;
#X obj 24 353 list trim;
#X floatatom 336 39 5 0 0 0 - #0-note-set #0-note;
#X obj 357 100 r \$0-note;
#X obj 373 40 bng 15 250 50 0 \$0-trigger-note empty empty 17 7 0 10
-262144 -1 -1;
#X obj 342 77 r \$0-trigger-note;
#X text 337 20 note;
#X obj 342 149 s \$0-note-get;
#X text 369 20 trigger;
#X obj 330 367 s \$0-to-voicebank;
#X obj 24 373 outlet;
#X connect 0 0 36 0;
#X connect 1 0 42 0;
#X connect 2 0 6 0;
#X connect 3 0 7 0;
#X connect 4 0 5 0;
#X connect 5 0 7 0;
#X connect 6 0 10 0;
#X connect 7 0 8 0;
#X connect 7 1 9 0;
#X connect 8 0 44 0;
#X connect 9 0 15 0;
#X connect 11 0 0 1;
#X connect 14 0 3 0;
#X connect 19 0 2 0;
#X connect 23 0 24 0;
#X connect 24 0 25 0;
#X connect 24 1 25 1;
#X connect 25 0 26 0;
#X connect 25 1 26 1;
#X connect 26 0 27 0;
#X connect 26 1 27 1;
#X connect 27 0 28 0;
#X connect 27 1 28 1;
#X connect 28 1 29 0;
#X connect 30 0 23 0;
#X connect 35 0 0 0;
#X connect 36 0 45 0;
#X connect 38 0 1 1;
#X connect 40 0 1 0;
#X coords 0 -1 1 1 400 40 2 20 20;
