#N canvas -1407 161 760 546 10;
#X obj 133 138 list;
#X obj 259 157 list length;
#X obj 280 106 t l l;
#X obj 169 153 list length;
#X obj 204 298 list split;
#X obj 111 296 list split;
#X obj 101 374 print main;
#X obj 201 372 print sub;
#X obj 330 360 print excess;
#X floatatom 267 191 5 0 0 0 - - -;
#X floatatom 305 250 5 0 0 0 - - -;
#X floatatom 159 193 5 0 0 0 - - -;
#X obj 227 221 min;
#X obj 273 339 route bang;
#X msg 113 69 1 2 3 4 5 6 7 8;
#X obj 122 106 t l b l;
#X msg 279 68 list a b c d e;
#X connect 0 0 4 0;
#X connect 1 0 12 1;
#X connect 1 0 9 0;
#X connect 2 0 1 0;
#X connect 2 1 0 1;
#X connect 3 0 11 0;
#X connect 3 0 12 0;
#X connect 4 0 7 0;
#X connect 4 1 13 0;
#X connect 5 0 6 0;
#X connect 5 1 13 0;
#X connect 12 0 10 0;
#X connect 12 0 5 1;
#X connect 12 0 4 1;
#X connect 13 1 8 0;
#X connect 14 0 15 0;
#X connect 15 0 5 0;
#X connect 15 1 0 0;
#X connect 15 2 3 0;
#X connect 16 0 2 0;
