#N canvas -1034 157 939 724 10;
#X obj 174 366 min;
#X obj 43 567 outlet;
#X obj 258 48 inlet;
#X obj 237 97 s \$0-mainellen;
#X obj 48 47 inlet;
#X obj 63 134 s \$0-mainlist;
#X obj 156 155 s \$0-sublist;
#X obj 177 68 inlet;
#X obj 156 134 list;
#X obj 189 344 r \$0-sublistlen;
#X obj 750 193 list length;
#X obj 723 168 t l l;
#X obj 702 380 list split;
#X obj 750 234 /;
#X obj 750 254 i;
#X obj 777 234 %;
#X obj 750 213 t f f;
#X obj 777 254 > 0;
#X obj 750 275 +;
#X obj 759 359 *;
#X obj 774 338 r \$0-subellen;
#X obj 750 296 s \$0-sublistlen;
#X obj 723 144 r \$0-sublist;
#X obj 759 317 r \$0-splitlen;
#X obj 702 422 s \$0-subout;
#X obj 730 401 s \$0-excessout;
#X obj 702 332 list;
#X obj 506 191 list length;
#X obj 479 166 t l l;
#X obj 458 378 list split;
#X obj 506 232 /;
#X obj 506 252 i;
#X obj 533 232 %;
#X obj 506 211 t f f;
#X obj 533 252 > 0;
#X obj 506 273 +;
#X obj 515 357 *;
#X obj 515 315 r \$0-splitlen;
#X obj 486 399 s \$0-excessout;
#X obj 458 330 list;
#X obj 479 142 r \$0-mainlist;
#X obj 548 211 r \$0-mainellen;
#X obj 506 294 s \$0-mainlistlen;
#X obj 530 336 r \$0-mainellen;
#X obj 792 214 r \$0-subellen;
#X obj 48 155 s \$0-output;
#X obj 515 53 r \$0-output;
#X obj 237 72 i \$1;
#X obj 369 47 inlet;
#X obj 348 96 s \$0-subellen;
#X obj 174 323 r \$0-mainlistlen;
#X obj 174 389 s \$0-splitlen;
#X obj 251 460 r \$0-excessout;
#X obj 287 570 outlet;
#X obj 153 583 outlet;
#X obj 153 455 r \$0-subout;
#X obj 458 420 s \$0-mainout;
#X obj 43 430 r \$0-mainout;
#X obj 43 479 t l b b;
#X obj 348 71 i \$2;
#X obj 48 70 t b l b b b;
#X obj 95 112 s \$0-lens;
#X obj 111 91 s \$0-reset;
#X obj 515 74 t b b;
#X obj 287 508 list;
#X obj 251 483 route bang;
#X obj 322 483 r \$0-reset;
#X obj 237 26 r \$0-lens;
#X obj 348 25 r \$0-lens;
#X connect 0 0 51 0;
#X connect 2 0 47 1;
#X connect 4 0 60 0;
#X connect 7 0 8 1;
#X connect 8 0 6 0;
#X connect 9 0 0 1;
#X connect 10 0 16 0;
#X connect 11 0 26 1;
#X connect 11 1 10 0;
#X connect 12 0 24 0;
#X connect 12 1 25 0;
#X connect 12 2 24 0;
#X connect 13 0 14 0;
#X connect 14 0 18 0;
#X connect 15 0 17 0;
#X connect 16 0 13 0;
#X connect 16 1 15 0;
#X connect 17 0 18 1;
#X connect 18 0 21 0;
#X connect 19 0 12 1;
#X connect 20 0 19 1;
#X connect 22 0 11 0;
#X connect 23 0 19 0;
#X connect 26 0 12 0;
#X connect 27 0 33 0;
#X connect 28 0 39 1;
#X connect 28 1 27 0;
#X connect 29 0 56 0;
#X connect 29 1 38 0;
#X connect 29 2 56 0;
#X connect 30 0 31 0;
#X connect 31 0 35 0;
#X connect 32 0 34 0;
#X connect 33 0 30 0;
#X connect 33 1 32 0;
#X connect 34 0 35 1;
#X connect 35 0 42 0;
#X connect 36 0 29 1;
#X connect 37 0 36 0;
#X connect 39 0 29 0;
#X connect 40 0 28 0;
#X connect 41 0 32 1;
#X connect 41 0 30 1;
#X connect 43 0 36 1;
#X connect 44 0 15 1;
#X connect 44 0 13 1;
#X connect 46 0 63 0;
#X connect 47 0 3 0;
#X connect 48 0 59 1;
#X connect 50 0 0 0;
#X connect 52 0 65 0;
#X connect 55 0 54 0;
#X connect 57 0 58 0;
#X connect 58 0 1 0;
#X connect 58 2 64 0;
#X connect 59 0 49 0;
#X connect 60 0 45 0;
#X connect 60 1 5 0;
#X connect 60 2 8 0;
#X connect 60 3 61 0;
#X connect 60 4 62 0;
#X connect 63 0 39 0;
#X connect 63 1 26 0;
#X connect 64 0 53 0;
#X connect 65 1 64 1;
#X connect 66 0 64 1;
#X connect 67 0 47 0;
#X connect 68 0 59 0;
