#N canvas 255 117 450 300 10;
#X obj 135 63 inlet;
#X obj 154 94 outlet;
#X obj 135 175 s \$1-\$2-set;
#X obj 267 119 r \$1-\$2-get;
#X obj 252 160 f;
#X obj 135 120 route \$2 dump;
#X obj 241 230 outlet;
#X obj 241 64 inlet;
#X obj 252 141 bng 15 250 50 0 empty empty empty 17 7 0 10 -262144
-1 -1;
#X obj 252 185 list prepend \$2;
#X connect 0 0 5 0;
#X connect 0 0 1 0;
#X connect 3 0 4 1;
#X connect 4 0 9 0;
#X connect 5 0 2 0;
#X connect 5 1 8 0;
#X connect 7 0 6 0;
#X connect 8 0 4 0;
#X connect 9 0 6 0;
