#N canvas 152 25 778 485 10;
#X floatatom 405 69 5 0 0 0 - - -;
#X msg 405 89 mod-ratio \$1;
#X floatatom 493 69 5 0 0 0 - - -;
#X floatatom 587 69 5 0 0 0 - - -;
#X msg 493 89 mod-amount \$1;
#X floatatom 360 67 5 0 0 0 - - -;
#X obj 571 195 list prepend;
#X obj 196 48 vradio 15 1 0 4 empty empty empty 0 -8 0 10 -262144 -1
-1 0;
#X obj 199 192 s \$0-voicenum;
#X obj 640 172 r \$0-voicenum;
#X obj 318 142 list append;
#X obj 345 121 i;
#X obj 318 100 t a b;
#X msg 587 89 attack \$1;
#X floatatom 661 67 5 0 0 0 - - -;
#X msg 661 88 decay \$1;
#X msg 61 130 \$1 100;
#X obj 61 212 spigot;
#X obj 61 151 poly 4 1;
#X msg 251 107 all;
#X obj 196 113 + 1;
#X msg 318 67 note;
#X floatatom 76 63 5 0 0 0 - - -;
#X obj 61 106 i;
#X msg 34 63 note;
#X obj 34 85 t b;
#X obj 139 115 loadbang;
#X msg 139 137 1;
#X obj 61 252 s \$0-voicebank;
#X obj 191 263 r \$0-voicebank;
#X obj 269 406 dac~;
#X msg 61 171 voice-\$1;
#X obj 61 191 pack s f;
#X msg 61 231 \$1 note \$2;
#X obj 191 283 list trim;
#X obj 571 266 s \$0-voicebank;
#X obj 251 132 symbol;
#X obj 240 428 s \$0-controls;
#X obj 196 135 t b f;
#X msg 157 194 dump;
#X obj 157 215 s \$0-voice-controls;
#X obj 595 126 r \$0-voice-controls;
#X obj 368 256 r \$0-controls;
#X obj 368 276 list trim;
#X obj 368 298 param \$0 attack;
#X obj 368 383 param \$0 mod-amount;
#X obj 368 362 param \$0 mod-ratio;
#X obj 368 319 param \$0 decay;
#X obj 368 340 param \$0 note;
#X obj 290 24 r \$0-note-set;
#X obj 396 16 r \$0-mod-ratio-set;
#X obj 461 42 r \$0-mod-amount-set;
#X obj 587 18 r \$0-attack-set;
#X obj 662 45 r \$0-decay-set;
#X obj 191 305 voice-abs voice-1;
#X obj 191 326 voice-abs voice-2;
#X obj 191 347 voice-abs voice-3;
#X obj 191 368 voice-abs voice-4;
#X msg 199 166 voice-\$1;
#X connect 0 0 1 0;
#X connect 1 0 6 0;
#X connect 2 0 4 0;
#X connect 3 0 13 0;
#X connect 4 0 6 0;
#X connect 5 0 11 1;
#X connect 6 0 35 0;
#X connect 7 0 20 0;
#X connect 9 0 6 1;
#X connect 10 0 6 0;
#X connect 11 0 10 1;
#X connect 12 0 10 0;
#X connect 12 1 11 0;
#X connect 13 0 6 0;
#X connect 14 0 15 0;
#X connect 15 0 6 0;
#X connect 16 0 18 0;
#X connect 17 0 33 0;
#X connect 18 0 31 0;
#X connect 18 1 32 1;
#X connect 18 2 17 1;
#X connect 19 0 36 0;
#X connect 20 0 38 0;
#X connect 21 0 12 0;
#X connect 22 0 23 1;
#X connect 23 0 16 0;
#X connect 24 0 25 0;
#X connect 25 0 23 0;
#X connect 26 0 27 0;
#X connect 27 0 58 0;
#X connect 29 0 34 0;
#X connect 31 0 32 0;
#X connect 32 0 17 0;
#X connect 33 0 28 0;
#X connect 34 0 54 0;
#X connect 36 0 8 0;
#X connect 38 0 39 0;
#X connect 38 1 58 0;
#X connect 39 0 40 0;
#X connect 41 0 6 0;
#X connect 42 0 43 0;
#X connect 43 0 44 0;
#X connect 44 0 47 0;
#X connect 44 1 47 1;
#X connect 46 0 45 0;
#X connect 46 1 45 1;
#X connect 47 0 48 0;
#X connect 47 1 48 1;
#X connect 48 0 46 0;
#X connect 48 1 46 1;
#X connect 49 0 5 0;
#X connect 50 0 0 0;
#X connect 51 0 2 0;
#X connect 52 0 3 0;
#X connect 53 0 14 0;
#X connect 54 0 55 0;
#X connect 54 1 55 1;
#X connect 54 2 55 2;
#X connect 55 0 56 0;
#X connect 55 1 56 1;
#X connect 55 2 56 2;
#X connect 56 0 57 0;
#X connect 56 1 57 1;
#X connect 56 2 57 2;
#X connect 57 1 37 0;
#X connect 57 2 30 0;
#X connect 57 2 30 1;
#X connect 58 0 8 0;
