#N canvas 49 25 912 501 10;
#X obj 724 194 osc~;
#X obj 707 106 sig~;
#X obj 723 254 *~;
#X obj 707 281 +~;
#X obj 707 314 osc~;
#X obj 532 260 vline~;
#X obj 532 282 *~;
#X obj 658 338 *~;
#X obj 680 67 t b f;
#X obj 680 40 r \$0-freq;
#X obj 29 52 inlet;
#X obj 606 376 inlet~;
#X obj 606 416 outlet~;
#X obj 41 75 outlet;
#X obj 658 365 *~ 0.25;
#X obj 532 220 pack f f;
#X msg 532 240 0 0 \, 1 \$1 0 \, 0 \$2 \$1;
#X obj 610 200 f 10;
#X obj 532 200 f 10;
#X obj 532 157 t b b;
#X obj 222 153 max 10;
#X obj 362 156 max 10;
#X obj 553 179 r \$0-attack;
#X obj 631 179 r \$0-decay;
#X obj 222 132 r \$0-attack-set;
#X obj 362 135 r \$0-decay-set;
#X obj 222 174 s \$0-attack;
#X obj 362 177 s \$0-decay;
#X obj 229 229 r \$0-mod-ratio-set;
#X obj 229 249 max 0;
#X obj 203 373 r \$0-note-set;
#X obj 203 394 mtof;
#X obj 203 415 s \$0-freq;
#X obj 229 289 line~;
#X msg 229 269 \$1 20;
#X obj 229 309 s~ \$0-mod-ratio;
#X obj 397 264 max 0;
#X obj 397 304 line~;
#X msg 397 284 \$1 20;
#X obj 397 244 r \$0-mod-amount-set;
#X obj 397 324 s~ \$0-mod-amount;
#X obj 740 105 r~ \$0-mod-ratio;
#X obj 773 172 r~ \$0-mod-amount;
#X obj 758 194 *~;
#X obj 724 150 *~;
#X text 179 56 all needs to be first here;
#X text 179 68 otherwise route won't work as expected;
#X obj 29 97 route voice-\$1 voice-all;
#X obj 140 239 outlet;
#X obj 29 127 param \$0 attack;
#X obj 199 198 s \$0-attack-get;
#X obj 342 200 s \$0-decay-get;
#X obj 208 334 s \$0-mod-ratio-get;
#X obj 370 351 s \$0-mod-amount-get;
#X obj 181 438 s \$0-note-get;
#X obj 107 55 inlet;
#X obj 29 212 param \$0 mod-amount;
#X obj 29 191 param \$0 mod-ratio;
#X obj 29 148 param \$0 decay;
#X obj 29 169 param \$0 note;
#X connect 0 0 2 0;
#X connect 1 0 3 0;
#X connect 1 0 44 0;
#X connect 2 0 3 1;
#X connect 3 0 4 0;
#X connect 4 0 7 1;
#X connect 5 0 6 0;
#X connect 5 0 6 1;
#X connect 6 0 7 0;
#X connect 7 0 14 0;
#X connect 8 0 19 0;
#X connect 8 1 1 0;
#X connect 9 0 8 0;
#X connect 10 0 13 0;
#X connect 10 0 47 0;
#X connect 11 0 12 0;
#X connect 14 0 12 0;
#X connect 15 0 16 0;
#X connect 16 0 5 0;
#X connect 17 0 15 1;
#X connect 18 0 15 0;
#X connect 19 0 18 0;
#X connect 19 1 17 0;
#X connect 20 0 26 0;
#X connect 20 0 50 0;
#X connect 21 0 27 0;
#X connect 21 0 51 0;
#X connect 22 0 18 1;
#X connect 23 0 17 1;
#X connect 24 0 20 0;
#X connect 25 0 21 0;
#X connect 28 0 29 0;
#X connect 29 0 34 0;
#X connect 29 0 52 0;
#X connect 30 0 31 0;
#X connect 30 0 54 0;
#X connect 31 0 32 0;
#X connect 33 0 35 0;
#X connect 34 0 33 0;
#X connect 36 0 38 0;
#X connect 36 0 53 0;
#X connect 37 0 40 0;
#X connect 38 0 37 0;
#X connect 39 0 36 0;
#X connect 41 0 44 1;
#X connect 42 0 43 1;
#X connect 43 0 2 1;
#X connect 44 0 0 0;
#X connect 44 0 43 0;
#X connect 47 0 49 0;
#X connect 47 1 49 0;
#X connect 49 0 58 0;
#X connect 49 1 58 1;
#X connect 55 0 49 1;
#X connect 56 1 48 0;
#X connect 57 0 56 0;
#X connect 57 1 56 1;
#X connect 58 0 59 0;
#X connect 58 1 59 1;
#X connect 59 0 57 0;
#X connect 59 1 57 1;
