#N struct 1027-presets float attack float decay float mod-ratio float
mod-amount float number;
#N canvas -1302 310 1031 480 10;
#X obj 24 331 list prepend;
#X obj 306 152 i;
#X msg 464 281 all;
#X obj 330 262 + 1;
#X obj 358 241 loadbang;
#X msg 358 262 1;
#X obj 464 302 symbol;
#X obj 330 284 t b f;
#X msg 330 346 dump;
#X msg 357 305 voice-\$1;
#X obj 464 323 s \$0-voice-name;
#X obj 93 310 r \$0-voice-name;
#X floatatom 123 39 5 0 0 0 - #0-mod-ratio-set #0-mod-ratio-get;
#X obj 92 40 bng 15 250 50 0 \$0-all-select empty empty 17 7 0 10 -262144
-1 -1;
#X obj 330 219 r \$0-voice-num-set;
#X obj 357 325 s \$0-voice-name;
#X text 91 22 all;
#X text 36 21 voice;
#X obj 27 40 hradio 15 1 0 4 \$0-voice-num-set empty empty 0 -8 0 10
-262144 -1 -1 0;
#X obj 464 260 r \$0-all-select;
#X text 121 21 mod-ratio;
#X floatatom 183 39 5 0 0 0 - #0-mod-amount-set #0-mod-amount-get;
#X text 181 21 mod-amount;
#X obj 24 113 list trim;
#X obj 24 133 control-param \$0 attack;
#X obj 24 154 control-param \$0 decay;
#X obj 24 175 control-param \$0 note;
#X obj 24 197 control-param \$0 mod-ratio;
#X obj 24 218 control-param \$0 mod-amount;
#X obj 183 249 s \$0-to-voicebank;
#X obj 24 93 inlet;
#X floatatom 249 39 5 0 0 0 - #0-attack-set #0-attack-get;
#X floatatom 291 39 5 0 0 0 - #0-decay-set #0-decay-get;
#X text 248 22 attack;
#X text 290 22 decay;
#X obj 24 288 r \$0-to-voicebank;
#X obj 24 353 list trim;
#X floatatom 336 39 5 0 0 0 - #0-note-set #0-note;
#X obj 321 126 r \$0-note;
#X obj 373 40 bng 15 250 50 0 \$0-trigger-note empty empty 17 7 0 10
-262144 -1 -1;
#X obj 306 103 r \$0-trigger-note;
#X text 337 20 note;
#X obj 306 175 s \$0-note-get;
#X text 369 20 trigger;
#X obj 330 367 s \$0-to-voicebank;
#X obj 24 373 outlet;
#N canvas -1358 95 1134 673 presets 0;
#X obj 73 43 inlet;
#N canvas 0 0 450 300 \$0-preset-info 0;
#X scalar 1027-presets 0 0 3 0 0 \;;
#X scalar 1027-presets 0 0 0 0 1 \;;
#X scalar 1027-presets 0 0 0 0 2 \;;
#X scalar 1027-presets 0 0 0 0 3 \;;
#X scalar 1027-presets 0 0 0 0 4 \;;
#X scalar 1027-presets 0 0 0 0 5 \;;
#X scalar 1027-presets 0 0 0 0 6 \;;
#X scalar 1027-presets 0 0 0 0 7 \;;
#X scalar 1027-presets 0 0 0 0 8 \;;
#X scalar 1027-presets 0 0 0 0 9 \;;
#X restore 528 84 pd \$0-preset-info;
#N canvas 0 493 468 300 \$0-presettemplate 0;
#X obj 45 62 struct \$0-presets float attack float decay float mod-ratio
float mod-amount float number;
#X restore 525 57 pd \$0-presettemplate;
#X msg 92 126 dump;
#X obj 92 147 param \$0 attack;
#X obj 92 168 param \$0 decay;
#X obj 92 189 param \$0 mod-ratio;
#X obj 92 210 param \$0 mod-amount;
#X obj 712 357 pointer;
#X obj 712 326 t b a;
#X obj 643 266 until;
#X obj 643 386 append \$0-presets number;
#X msg 712 301 traverse pd-\$1-preset-info;
#X msg 643 237 10;
#X obj 754 238 \$0;
#X obj 712 272 \$0;
#X obj 643 315 f;
#X obj 679 314 + 1;
#X obj 643 211 t b b b b;
#X msg 689 244 0;
#X msg 754 261 \; pd-\$1-preset-info clear;
#X obj 417 313 pointer;
#X msg 377 286 next;
#X obj 473 312 bng 15 250 50 0 empty empty empty 17 7 0 10 -262144
-1 -1;
#X obj 358 231 t b f b;
#X obj 377 260 until;
#X obj 358 340 pointer;
#X msg 417 286 traverse pd-\$1-preset-info;
#X obj 417 262 \$0;
#X obj 73 69 route save load preset;
#X obj 127 94 t b;
#X obj 73 378 set \$0-presets attack decay mod-ratio mod-amount;
#X obj 373 51 inlet;
#X obj 88 307 route attack decay mod-ratio mod-amount;
#X obj 73 331 t b b b b;
#X obj 286 357 f;
#X obj 215 357 f;
#X obj 144 357 f;
#X obj 73 357 f;
#X obj 631 480 pointer;
#X msg 591 453 next;
#X obj 687 479 bng 15 250 50 0 empty empty empty 17 7 0 10 -262144
-1 -1;
#X obj 572 398 t b f b;
#X obj 591 427 until;
#X obj 572 507 pointer;
#X msg 631 453 traverse pd-\$1-preset-info;
#X obj 631 429 \$0;
#X obj 594 246 f;
#X obj 572 532 get \$0-presets attack decay mod-ratio mod-amount;
#X obj 572 556 s \$0-attack-set;
#X obj 667 580 s \$0-decay-set;
#X obj 762 558 s \$0-mod-ratio-set;
#X obj 857 582 s \$0-mod-amount-set;
#X obj 123 276 list trim;
#X obj 358 168 f;
#X obj 73 94 t b b b;
#X obj 721 15 inlet;
#X obj 721 47 route clear fileload filesave;
#X obj 739 110 makefilename preset_%s.pdc;
#X obj 739 130 t s b;
#X obj 766 152 \$0;
#X obj 739 174 list prepend;
#X obj 739 90 symbol;
#X obj 918 105 makefilename preset_%s.pdc;
#X obj 918 125 t s b;
#X obj 945 147 \$0;
#X obj 918 169 list prepend;
#X obj 918 85 symbol;
#X msg 739 195 \; pd-\$1-preset-info read \$2;
#X msg 918 190 \; pd-\$1-preset-info write \$2;
#X obj 396 461 loadbang;
#X obj 396 490 \$0;
#X floatatom 396 515 5 0 0 0 - - -;
#X connect 0 0 29 0;
#X connect 3 0 4 0;
#X connect 4 0 5 0;
#X connect 4 1 5 1;
#X connect 5 0 6 0;
#X connect 5 1 6 1;
#X connect 6 0 7 0;
#X connect 6 1 7 1;
#X connect 7 1 53 0;
#X connect 8 0 11 1;
#X connect 9 0 8 0;
#X connect 9 1 8 0;
#X connect 10 0 16 0;
#X connect 12 0 9 0;
#X connect 13 0 10 0;
#X connect 14 0 20 0;
#X connect 15 0 12 0;
#X connect 16 0 17 0;
#X connect 16 0 11 0;
#X connect 17 0 16 1;
#X connect 18 0 13 0;
#X connect 18 1 19 0;
#X connect 18 2 15 0;
#X connect 18 3 14 0;
#X connect 19 0 16 1;
#X connect 21 0 26 1;
#X connect 21 1 23 0;
#X connect 22 0 21 0;
#X connect 23 0 25 1;
#X connect 24 0 26 0;
#X connect 24 1 25 0;
#X connect 24 2 28 0;
#X connect 25 0 22 0;
#X connect 26 0 31 4;
#X connect 27 0 21 0;
#X connect 28 0 27 0;
#X connect 29 0 55 0;
#X connect 29 1 30 0;
#X connect 30 0 47 0;
#X connect 32 0 47 1;
#X connect 32 0 54 1;
#X connect 33 0 38 1;
#X connect 33 1 37 1;
#X connect 33 2 36 1;
#X connect 33 3 35 1;
#X connect 34 0 38 0;
#X connect 34 1 37 0;
#X connect 34 2 36 0;
#X connect 34 3 35 0;
#X connect 35 0 31 3;
#X connect 36 0 31 2;
#X connect 37 0 31 1;
#X connect 38 0 31 0;
#X connect 39 0 44 1;
#X connect 39 1 41 0;
#X connect 40 0 39 0;
#X connect 41 0 43 1;
#X connect 42 0 44 0;
#X connect 42 1 43 0;
#X connect 42 2 46 0;
#X connect 43 0 40 0;
#X connect 44 0 48 0;
#X connect 45 0 39 0;
#X connect 46 0 45 0;
#X connect 47 0 42 0;
#X connect 48 0 49 0;
#X connect 48 1 50 0;
#X connect 48 2 51 0;
#X connect 48 3 52 0;
#X connect 53 0 33 0;
#X connect 54 0 24 0;
#X connect 55 0 34 0;
#X connect 55 1 3 0;
#X connect 55 2 54 0;
#X connect 56 0 57 0;
#X connect 57 0 18 0;
#X connect 57 1 62 0;
#X connect 57 2 67 0;
#X connect 58 0 59 0;
#X connect 59 0 61 0;
#X connect 59 1 60 0;
#X connect 60 0 61 1;
#X connect 61 0 68 0;
#X connect 62 0 58 0;
#X connect 63 0 64 0;
#X connect 64 0 66 0;
#X connect 64 1 65 0;
#X connect 65 0 66 1;
#X connect 66 0 69 0;
#X connect 67 0 63 0;
#X connect 70 0 71 0;
#X connect 71 0 72 0;
#X restore 605 217 pd presets;
#X floatatom 420 38 5 1 10 0 - #0-preset-set #0-preset;
#X text 419 21 preset;
#X obj 466 38 bng 15 250 50 0 \$0-save empty empty 17 7 0 10 -262144
-1 -1;
#X text 460 21 save;
#X obj 495 38 bng 15 250 50 0 \$0-load empty empty 17 7 0 10 -262144
-1 -1;
#X text 489 22 load;
#X obj 533 156 r \$0-save;
#X msg 535 181 save;
#X obj 599 157 r \$0-load;
#X msg 602 183 load;
#X obj 667 154 r \$0-preset;
#X obj 723 52 loadbang;
#X obj 723 96 s \$0-preset-set;
#X msg 723 74 1;
#X msg 752 180 fileload test;
#X msg 851 180 filesave test;
#X msg 684 183 clear;
#X connect 0 0 36 0;
#X connect 1 0 42 0;
#X connect 2 0 6 0;
#X connect 3 0 7 0;
#X connect 4 0 5 0;
#X connect 5 0 7 0;
#X connect 6 0 10 0;
#X connect 7 0 8 0;
#X connect 7 1 9 0;
#X connect 8 0 44 0;
#X connect 9 0 15 0;
#X connect 11 0 0 1;
#X connect 14 0 3 0;
#X connect 19 0 2 0;
#X connect 23 0 24 0;
#X connect 24 0 25 0;
#X connect 24 1 25 1;
#X connect 25 0 26 0;
#X connect 25 1 26 1;
#X connect 26 0 27 0;
#X connect 26 1 27 1;
#X connect 27 0 28 0;
#X connect 27 1 28 1;
#X connect 28 1 29 0;
#X connect 30 0 23 0;
#X connect 35 0 0 0;
#X connect 36 0 45 0;
#X connect 38 0 1 1;
#X connect 40 0 1 0;
#X connect 53 0 54 0;
#X connect 54 0 46 0;
#X connect 55 0 56 0;
#X connect 56 0 46 0;
#X connect 57 0 46 1;
#X connect 58 0 60 0;
#X connect 60 0 59 0;
#X connect 61 0 46 2;
#X connect 62 0 46 2;
#X connect 63 0 46 2;
#X coords 0 -1 1 1 500 40 2 20 20;
