#N struct struct1 float a;
#N canvas -1508 330 753 518 10;
#X obj 308 173 pointer;
#X floatatom 239 179 5 0 0 0 - - -;
#X obj 556 150 pointer;
#X floatatom 497 229 5 0 0 0 - - -;
#X msg 516 123 next;
#X msg 308 117 traverse pd-datawindow1;
#X obj 239 202 append struct1 a;
#X msg 556 97 traverse pd-datawindow1;
#X obj 497 203 get struct1 a;
#X obj 612 149 bng 15 250 50 0 empty empty empty 17 7 0 10 -262144
-1 -1;
#N canvas 0 0 450 300 datawindow1 0;
#X scalar struct1 1 \;;
#X scalar struct1 2 \;;
#X scalar struct1 3 \;;
#X scalar struct1 4 \;;
#X scalar struct1 5 \;;
#X scalar struct1 12 \;;
#X scalar struct1 7 \;;
#X scalar struct1 8 \;;
#X scalar struct1 9 \;;
#X scalar struct1 10 \;;
#X scalar struct1 11 \;;
#X scalar struct1 12 \;;
#X scalar struct1 13 \;;
#X scalar struct1 14 \;;
#X scalar struct1 15 \;;
#X scalar struct1 16 \;;
#X scalar struct1 17 \;;
#X scalar struct1 18 \;;
#X scalar struct1 19 \;;
#X scalar struct1 20 \;;
#X restore 33 114 pd datawindow1;
#X obj 308 142 t b a;
#X msg 32 154 \; pd-datawindow1 clear;
#X msg 350 141 next;
#N canvas 0 348 450 300 template1 0;
#X obj 125 73 struct struct1 float a;
#X restore 33 83 pd template1;
#X obj 203 124 until;
#X obj 203 150 f;
#X obj 239 149 + 1;
#X floatatom 497 43 5 0 0 0 - - -;
#X obj 497 68 t b f b;
#X obj 516 97 until;
#X obj 497 177 pointer;
#X msg 238 101 0;
#X obj 386 369 pointer;
#X msg 346 342 next;
#X msg 386 316 traverse pd-datawindow1;
#X obj 442 368 bng 15 250 50 0 empty empty empty 17 7 0 10 -262144
-1 -1;
#X floatatom 327 262 5 0 0 0 - - -;
#X obj 327 287 t b f b;
#X obj 346 316 until;
#X obj 327 396 pointer;
#X obj 252 428 set struct1 a;
#X floatatom 252 349 5 0 0 0 - - -;
#X obj 203 78 t f b b;
#X msg 203 48 20;
#X connect 0 0 6 1;
#X connect 1 0 6 0;
#X connect 2 0 21 1;
#X connect 2 1 9 0;
#X connect 4 0 2 0;
#X connect 5 0 11 0;
#X connect 7 0 2 0;
#X connect 8 0 3 0;
#X connect 9 0 20 1;
#X connect 11 0 0 0;
#X connect 11 1 0 0;
#X connect 13 0 0 0;
#X connect 15 0 16 0;
#X connect 16 0 17 0;
#X connect 17 0 16 1;
#X connect 17 0 1 0;
#X connect 18 0 19 0;
#X connect 19 0 21 0;
#X connect 19 1 20 0;
#X connect 19 2 7 0;
#X connect 20 0 4 0;
#X connect 21 0 8 0;
#X connect 22 0 16 1;
#X connect 23 0 30 1;
#X connect 23 1 26 0;
#X connect 24 0 23 0;
#X connect 25 0 23 0;
#X connect 26 0 29 1;
#X connect 27 0 28 0;
#X connect 28 0 30 0;
#X connect 28 1 29 0;
#X connect 28 2 25 0;
#X connect 29 0 24 0;
#X connect 30 0 31 1;
#X connect 32 0 31 0;
#X connect 33 0 15 0;
#X connect 33 1 22 0;
#X connect 33 2 5 0;
#X connect 34 0 33 0;
