#N struct struct1 float a;
#N canvas -1373 210 766 321 10;
#X obj 550 183 pointer;
#X floatatom 481 189 5 0 0 0 - - -;
#X obj 267 150 pointer;
#X floatatom 208 229 5 0 0 0 - - -;
#X msg 227 123 next;
#X msg 550 127 traverse pd-datawindow1;
#X obj 481 212 append struct1 a;
#X msg 267 97 traverse pd-datawindow1;
#X obj 208 203 get struct1 a;
#X obj 323 149 bng 15 250 50 0 empty empty empty 17 7 0 10 -262144
-1 -1;
#N canvas 0 0 450 300 datawindow1 0;
#X scalar struct1 1 \;;
#X scalar struct1 2 \;;
#X scalar struct1 3 \;;
#X scalar struct1 4 \;;
#X scalar struct1 5 \;;
#X scalar struct1 6 \;;
#X scalar struct1 7 \;;
#X scalar struct1 8 \;;
#X scalar struct1 9 \;;
#X scalar struct1 10 \;;
#X restore 33 114 pd datawindow1;
#X obj 550 152 t b a;
#X msg 32 154 \; pd-datawindow1 clear;
#X msg 592 151 next;
#N canvas 0 348 450 300 template1 0;
#X obj 125 73 struct struct1 float a;
#X restore 33 83 pd template1;
#X obj 445 134 until;
#X msg 445 111 10;
#X obj 445 160 f;
#X obj 481 159 + 1;
#X obj 445 62 bng 15 250 50 0 empty empty empty 17 7 0 10 -262144 -1
-1;
#X floatatom 208 43 5 0 0 0 - - -;
#X obj 208 68 t b f b;
#X obj 227 97 until;
#X obj 208 177 pointer;
#X obj 445 88 t b b b;
#X msg 480 111 0;
#X connect 0 0 6 1;
#X connect 1 0 6 0;
#X connect 2 0 23 1;
#X connect 2 1 9 0;
#X connect 4 0 2 0;
#X connect 5 0 11 0;
#X connect 7 0 2 0;
#X connect 8 0 3 0;
#X connect 9 0 22 1;
#X connect 11 0 0 0;
#X connect 11 1 0 0;
#X connect 13 0 0 0;
#X connect 15 0 17 0;
#X connect 16 0 15 0;
#X connect 17 0 18 0;
#X connect 18 0 17 1;
#X connect 18 0 1 0;
#X connect 19 0 24 0;
#X connect 20 0 21 0;
#X connect 21 0 23 0;
#X connect 21 1 22 0;
#X connect 21 2 7 0;
#X connect 22 0 4 0;
#X connect 23 0 8 0;
#X connect 24 0 16 0;
#X connect 24 1 25 0;
#X connect 24 2 5 0;
#X connect 25 0 17 1;
