#N canvas 44 55 884 437 10;
#X obj 499 123 inlet~;
#X obj 637 302 *~;
#X obj 498 321 *~;
#X obj 54 265 - 1;
#X obj 54 286 * -1;
#X obj 96 218 max 0;
#X obj 96 241 min 1;
#X obj 96 286 line~;
#X msg 96 266 \$1 20;
#X obj 54 333 line~;
#X msg 54 309 \$1 20;
#X obj 512 293 r~ \$0-dry-mix;
#X obj 637 242 vd~ \$0-delayline;
#X obj 96 196 r \$0-mix-set;
#X obj 66 104 param mix;
#X obj 66 59 inlet;
#X obj 207 228 max 0;
#X obj 207 299 line~;
#X msg 207 275 \$1 20;
#X obj 512 159 delwrite~ \$0-delayline 2000;
#X obj 207 251 min 2000;
#X obj 55 357 s~ \$0-dry-mix;
#X obj 95 309 s~ \$0-wet-mix;
#X obj 652 274 r~ \$0-wet-mix;
#X obj 207 205 r \$0-time-set;
#X obj 206 322 s~ \$0-delay-time;
#X obj 66 125 param time;
#X obj 555 362 outlet~;
#X obj 594 219 *~;
#X obj 637 217 r~ \$0-delay-time;
#X obj 323 227 max 0;
#X obj 323 298 line~;
#X msg 323 274 \$1 20;
#X obj 66 146 param feedback;
#X obj 323 204 r \$0-feedback-set;
#X obj 322 321 s~ \$0-delay-feedback;
#X obj 608 193 r~ \$0-delay-feedback;
#X obj 66 83 route delay;
#X obj 129 104 outlet;
#X obj 323 250 min 1;
#X connect 0 0 2 0;
#X connect 0 0 19 0;
#X connect 1 0 27 0;
#X connect 2 0 27 0;
#X connect 3 0 4 0;
#X connect 4 0 10 0;
#X connect 5 0 6 0;
#X connect 6 0 3 0;
#X connect 6 0 8 0;
#X connect 7 0 22 0;
#X connect 8 0 7 0;
#X connect 9 0 21 0;
#X connect 10 0 9 0;
#X connect 11 0 2 1;
#X connect 12 0 1 0;
#X connect 12 0 28 0;
#X connect 13 0 5 0;
#X connect 14 0 26 0;
#X connect 15 0 37 0;
#X connect 16 0 20 0;
#X connect 17 0 25 0;
#X connect 18 0 17 0;
#X connect 20 0 18 0;
#X connect 23 0 1 1;
#X connect 24 0 16 0;
#X connect 26 0 33 0;
#X connect 28 0 12 0;
#X connect 29 0 12 0;
#X connect 30 0 39 0;
#X connect 31 0 35 0;
#X connect 32 0 31 0;
#X connect 34 0 30 0;
#X connect 36 0 28 1;
#X connect 37 0 14 0;
#X connect 37 1 38 0;
#X connect 39 0 32 0;
