#N canvas -1709 129 1020 713 10;
#X obj 585 201 lmatch 1 1;
#X obj 543 242 interleave 1 1;
#X obj 747 309 list length;
#X obj 728 267 t l l b;
#X obj 747 330 /;
#X obj 559 267 v \$0-mainellen;
#X obj 604 116 v \$0-mainellen;
#X obj 642 180 v \$0-subellen;
#X obj 623 158 t l b;
#X obj 585 96 t l b;
#X obj 642 221 v \$0-remellen;
#X obj 767 288 v \$0-remellen;
#X obj 623 137 r \$0-sublist;
#X obj 585 75 r \$0-mainlist;
#X obj 747 351 < 2;
#X obj 747 414 s \$0-recur;
#X obj 630 358 r \$0-recur;
#X msg 747 393 recur;
#X msg 792 396 output;
#X obj 608 421 route recur output;
#X obj 608 505 s \$0-sublist;
#X obj 537 512 list;
#X obj 500 383 r \$0-recur;
#X obj 485 446 route recur output;
#X obj 485 467 s \$0-mainlist;
#X obj 608 442 t l b;
#X obj 635 463 v \$0-remellen;
#X obj 635 484 v \$0-subellen;
#X obj 747 372 sel 0 1;
#X obj 485 404 list prepend;
#X obj 608 379 list prepend;
#X obj 485 425 list trim;
#X obj 608 400 list trim;
#X obj 54 498 lcreate 1;
#X obj 205 27 inlet;
#X obj 205 69 t b f;
#X obj 205 120 s \$0-process;
#X obj 232 97 v \$0-bar;
#X obj 54 288 v \$0-beats;
#X obj 81 267 v \$0-bar;
#X obj 54 221 r \$0-process;
#X obj 54 242 t b b;
#X obj 54 309 min;
#X obj 73 350 v \$0-bar;
#X obj 73 371 -;
#X obj 54 330 t f b f;
#X obj 205 48 max 0;
#X obj 82 33 inlet;
#X obj 82 75 t b f;
#X obj 82 126 s \$0-process;
#X obj 82 54 max 0;
#X obj 109 103 v \$0-beats;
#X obj 73 392 lcreate 0;
#X floatatom 283 27 5 0 0 0 - - -;
#X floatatom 126 38 5 0 0 0 - - -;
#X obj 54 519 t l b;
#X obj 81 562 v \$0-mainellen;
#X obj 81 541 1;
#X obj 73 413 t l b;
#X obj 100 435 1;
#X obj 100 456 v \$0-subellen;
#X obj 73 476 s \$0-sub;
#X obj 54 583 s \$0-main;
#X obj 323 199 r \$0-sub;
#X obj 323 220 t l l;
#X obj 329 378 list;
#X obj 323 241 list length;
#X obj 227 220 t l l;
#X obj 233 378 list;
#X obj 227 241 list length;
#X obj 227 199 r \$0-main;
#X obj 285 260 min;
#X obj 285 281 < 1;
#X obj 285 302 sel 1 0;
#X obj 329 399 list prepend;
#X obj 233 399 list prepend;
#X obj 369 462 s \$0-sublist;
#X msg 285 323 out;
#X msg 316 323 calc;
#X obj 233 441 route out calc;
#X obj 329 441 route out calc;
#X obj 273 466 s \$0-mainlist;
#X obj 293 490 list;
#X obj 293 511 s \$0-output;
#X obj 537 533 s \$0-output;
#X obj 386 613 r \$0-output;
#X obj 285 344 t b b a;
#X obj 233 420 list trim;
#X obj 329 420 list trim;
#X obj 386 634 outlet;
#X obj 608 338 list;
#X obj 485 354 t l b;
#X obj 485 292 t b l;
#X obj 485 333 list;
#X obj 485 312 del 1;
#X connect 0 0 1 0;
#X connect 0 1 1 1;
#X connect 0 2 1 2;
#X connect 0 3 1 3;
#X connect 0 4 3 0;
#X connect 0 5 10 0;
#X connect 1 0 92 0;
#X connect 1 1 5 0;
#X connect 2 0 4 0;
#X connect 3 0 90 1;
#X connect 3 1 2 0;
#X connect 3 2 11 0;
#X connect 4 0 14 0;
#X connect 6 0 0 1;
#X connect 7 0 0 3;
#X connect 8 0 0 2;
#X connect 8 1 7 0;
#X connect 9 0 0 0;
#X connect 9 1 6 0;
#X connect 11 0 4 1;
#X connect 12 0 8 0;
#X connect 13 0 9 0;
#X connect 14 0 28 0;
#X connect 16 0 30 1;
#X connect 17 0 15 0;
#X connect 18 0 15 0;
#X connect 19 0 25 0;
#X connect 19 1 21 1;
#X connect 21 0 84 0;
#X connect 22 0 29 1;
#X connect 23 0 24 0;
#X connect 23 1 21 0;
#X connect 25 0 20 0;
#X connect 25 1 26 0;
#X connect 26 0 27 0;
#X connect 28 0 17 0;
#X connect 28 1 18 0;
#X connect 29 0 31 0;
#X connect 30 0 32 0;
#X connect 31 0 23 0;
#X connect 32 0 19 0;
#X connect 33 0 55 0;
#X connect 34 0 46 0;
#X connect 35 0 36 0;
#X connect 35 1 37 0;
#X connect 38 0 42 0;
#X connect 39 0 42 1;
#X connect 40 0 41 0;
#X connect 41 0 38 0;
#X connect 41 1 39 0;
#X connect 42 0 45 0;
#X connect 43 0 44 0;
#X connect 44 0 52 0;
#X connect 45 0 33 0;
#X connect 45 1 43 0;
#X connect 45 2 44 1;
#X connect 46 0 35 0;
#X connect 47 0 50 0;
#X connect 48 0 49 0;
#X connect 48 1 51 0;
#X connect 50 0 48 0;
#X connect 52 0 58 0;
#X connect 53 0 46 0;
#X connect 54 0 50 0;
#X connect 55 0 62 0;
#X connect 55 1 57 0;
#X connect 57 0 56 0;
#X connect 58 0 61 0;
#X connect 58 1 59 0;
#X connect 59 0 60 0;
#X connect 63 0 64 0;
#X connect 64 0 66 0;
#X connect 64 1 65 1;
#X connect 65 0 74 0;
#X connect 66 0 71 1;
#X connect 67 0 69 0;
#X connect 67 1 68 1;
#X connect 68 0 75 0;
#X connect 69 0 71 0;
#X connect 70 0 67 0;
#X connect 71 0 72 0;
#X connect 72 0 73 0;
#X connect 73 0 77 0;
#X connect 73 1 78 0;
#X connect 74 0 88 0;
#X connect 75 0 87 0;
#X connect 77 0 86 0;
#X connect 78 0 86 0;
#X connect 79 0 82 0;
#X connect 79 1 81 0;
#X connect 80 0 82 1;
#X connect 80 1 76 0;
#X connect 82 0 83 0;
#X connect 85 0 89 0;
#X connect 86 0 68 0;
#X connect 86 1 65 0;
#X connect 86 2 74 1;
#X connect 86 2 75 1;
#X connect 87 0 79 0;
#X connect 88 0 80 0;
#X connect 90 0 30 0;
#X connect 91 0 29 0;
#X connect 91 1 90 0;
#X connect 92 0 94 0;
#X connect 92 1 93 1;
#X connect 93 0 91 0;
#X connect 94 0 93 0;
