#N canvas -1169 237 998 542 10;
#X obj 108 108 r \$0-clock;
#X msg 50 262 bd;
#X obj 407 371 s_drumelectro;
#X obj 50 46 metro 250;
#X floatatom 103 19 5 0 0 0 - - -;
#X obj 50 20 tgl 15 0 empty empty empty 17 7 0 10 -262144 -1 -1 0 1
;
#X obj 138 132 r \$0-reset;
#X obj 165 26 bng 15 250 50 0 empty empty empty 17 7 0 10 -262144 -1
-1;
#X obj 165 49 s \$0-reset;
#X obj 50 69 s \$0-clock;
#X obj 285 111 r \$0-clock;
#X obj 315 135 r \$0-reset;
#X obj 465 111 r \$0-clock;
#X obj 495 135 r \$0-reset;
#X obj 642 114 r \$0-clock;
#X obj 672 138 r \$0-reset;
#X obj 811 110 r \$0-clock;
#X obj 841 134 r \$0-reset;
#X msg 227 263 sn;
#X msg 407 263 cp;
#X msg 584 266 hh;
#X msg 753 262 oh;
#X obj 50 157 euclid_sequencer;
#X obj 99 264 bng 15 250 50 0 empty empty empty 17 7 0 10 -262144 -1
-1;
#X obj 65 131 bng 15 250 50 0 empty empty empty 17 7 0 10 -262144 -1
-1;
#X obj 407 160 euclid_sequencer;
#X obj 227 160 euclid_sequencer;
#X obj 584 160 euclid_sequencer;
#X obj 753 159 euclid_sequencer;
#X obj 404 436 dac~;
#X connect 0 0 22 2;
#X connect 0 0 24 0;
#X connect 1 0 2 0;
#X connect 2 0 29 0;
#X connect 2 0 29 1;
#X connect 3 0 9 0;
#X connect 4 0 3 1;
#X connect 5 0 3 0;
#X connect 6 0 22 3;
#X connect 7 0 8 0;
#X connect 10 0 26 2;
#X connect 11 0 26 3;
#X connect 12 0 25 2;
#X connect 13 0 25 3;
#X connect 14 0 27 2;
#X connect 15 0 27 3;
#X connect 16 0 28 2;
#X connect 17 0 28 3;
#X connect 18 0 2 0;
#X connect 19 0 2 0;
#X connect 20 0 2 0;
#X connect 21 0 2 0;
#X connect 22 0 1 0;
#X connect 22 0 23 0;
#X connect 25 0 19 0;
#X connect 26 0 18 0;
#X connect 27 0 20 0;
#X connect 28 0 21 0;
