#N canvas -821 214 772 574 10;
#X obj 141 222 list split 1;
#X obj 199 247 list;
#X obj 297 249 + 1;
#X msg 282 225 0;
#X obj 267 249 i 0;
#X obj 168 277 t f b;
#X obj 141 246 t b f;
#X obj 263 195 t l b l;
#X obj 353 231 list length;
#X obj 575 230 + 1;
#X obj 545 230 i 0;
#X obj 575 306 sel;
#X msg 575 329 0;
#X obj 575 259 t f b f;
#X obj 353 289 s sequence;
#X msg 353 263 resize \$1;
#X obj 263 154 erhythms;
#X obj 164 373 table \$0-sequence;
#X obj 266 69 inlet;
#X obj 311 70 inlet;
#X obj 545 404 outlet;
#X obj 545 353 tabread \$0-sequence;
#X obj 168 324 tabwrite \$0-sequence;
#X obj 423 263 v \$0-seqlength;
#X obj 602 280 v \$0-seqlength;
#X obj 545 130 inlet;
#X obj 612 171 inlet;
#X obj 545 200 t b;
#X obj 612 198 t f;
#X obj 545 378 sel 1;
#X floatatom 103 68 5 0 200 0 - - #0-measure;
#X floatatom 57 68 5 0 200 0 - - #0-beats;
#X obj 196 112 r \$0-beats;
#X obj 330 109 r \$0-measure;
#X text 55 50 beats;
#X text 98 50 measure;
#X floatatom 57 103 5 0 200 0 - - #0-offset;
#X text 55 85 offset;
#X obj 109 103 bng 15 250 50 0 \$0-offset empty empty 17 7 0 10 -262144
-1 -1;
#X obj 656 171 r \$0-offset;
#X text 103 85 reset;
#X text 64 123 On/Off;
#X obj 107 125 tgl 15 0 \$0-onoff empty empty 17 7 0 10 -262144 -1
-1 1 1;
#X obj 545 169 spigot;
#X obj 591 133 tgl 15 0 empty empty empty 17 7 0 10 -262144 -1 -1 0
1;
#X obj 590 103 r \$0-onoff;
#X connect 0 0 6 0;
#X connect 0 1 1 1;
#X connect 1 0 0 0;
#X connect 2 0 4 1;
#X connect 3 0 4 1;
#X connect 4 0 2 0;
#X connect 4 0 22 1;
#X connect 5 0 22 0;
#X connect 5 1 4 0;
#X connect 6 0 1 0;
#X connect 6 1 5 0;
#X connect 7 0 0 0;
#X connect 7 1 3 0;
#X connect 7 2 8 0;
#X connect 8 0 15 0;
#X connect 8 0 23 0;
#X connect 9 0 13 0;
#X connect 10 0 9 0;
#X connect 10 0 21 0;
#X connect 11 0 12 0;
#X connect 12 0 10 1;
#X connect 13 0 11 0;
#X connect 13 1 24 0;
#X connect 13 2 10 1;
#X connect 15 0 14 0;
#X connect 16 0 7 0;
#X connect 18 0 16 0;
#X connect 19 0 16 1;
#X connect 21 0 29 0;
#X connect 24 0 11 1;
#X connect 25 0 43 0;
#X connect 26 0 28 0;
#X connect 27 0 10 0;
#X connect 28 0 10 1;
#X connect 29 0 20 0;
#X connect 32 0 16 0;
#X connect 33 0 16 1;
#X connect 39 0 28 0;
#X connect 43 0 27 0;
#X connect 44 0 43 1;
#X connect 45 0 44 0;
#X coords 0 -1 1 1 95 95 2 50 50;
