#N canvas -1494 427 590 465 10;
#X obj 184 148 random;
#X msg 157 45 0 1 2 3 4 5 6 7 8 9;
#X obj 184 102 list length;
#X obj 157 225 list split;
#X obj 157 77 t l l;
#X obj 184 125 t b f;
#X floatatom 238 178 5 0 0 0 - - -;
#X obj 123 355 print main;
#X obj 185 253 list split 1;
#X obj 288 245 print extra;
#X obj 157 285 list;
#X obj 215 326 print random;
#X connect 0 0 3 1;
#X connect 0 0 6 0;
#X connect 1 0 4 0;
#X connect 2 0 5 0;
#X connect 3 0 10 0;
#X connect 3 1 8 0;
#X connect 3 2 9 0;
#X connect 4 0 3 0;
#X connect 4 1 2 0;
#X connect 5 0 0 0;
#X connect 5 1 0 1;
#X connect 8 0 11 0;
#X connect 8 1 10 1;
#X connect 10 0 7 0;
