#N canvas -1453 178 590 465 10;
#X obj 246 145 random;
#X msg 42 18 0 1 2 3 4 5 6 7 8 9;
#X obj 246 99 list length;
#X obj 219 171 list split;
#X obj 219 76 t l l;
#X obj 246 122 t b f;
#X obj 247 194 list split 1;
#X obj 219 226 list;
#X obj 219 250 route bang;
#X obj 276 274 s \$0-input;
#X obj 219 44 r \$0-input;
#X obj 42 87 s \$0-input;
#X obj 300 230 s \$0-element;
#X obj 240 298 r \$0-element;
#X obj 240 344 list;
#X obj 240 367 t l;
#X obj 42 42 t l b;
#X obj 69 66 s \$0-reset;
#X obj 261 318 r \$0-reset;
#X obj 219 391 list;
#X obj 219 417 print output;
#X connect 0 0 3 1;
#X connect 1 0 16 0;
#X connect 2 0 5 0;
#X connect 3 0 7 0;
#X connect 3 1 6 0;
#X connect 4 0 3 0;
#X connect 4 1 2 0;
#X connect 5 0 0 0;
#X connect 5 1 0 1;
#X connect 6 0 12 0;
#X connect 6 1 7 1;
#X connect 7 0 8 0;
#X connect 8 0 19 0;
#X connect 8 1 9 0;
#X connect 10 0 4 0;
#X connect 13 0 14 0;
#X connect 14 0 15 0;
#X connect 15 0 14 1;
#X connect 15 0 19 1;
#X connect 16 0 11 0;
#X connect 16 1 17 0;
#X connect 18 0 14 1;
#X connect 19 0 20 0;
