#N canvas -1453 178 590 465 10;
#X obj 246 145 random;
#X obj 246 99 list length;
#X obj 219 171 list split;
#X obj 219 76 t l l;
#X obj 246 122 t b f;
#X obj 247 194 list split 1;
#X obj 219 226 list;
#X obj 219 250 route bang;
#X obj 276 274 s \$0-input;
#X obj 219 47 r \$0-input;
#X obj 56 116 s \$0-input;
#X obj 240 320 list;
#X obj 240 343 t l;
#X obj 56 71 t l b;
#X obj 83 95 s \$0-reset;
#X obj 261 294 r \$0-reset;
#X obj 219 367 list;
#X obj 56 45 inlet;
#X obj 219 393 outlet;
#X connect 0 0 2 1;
#X connect 1 0 4 0;
#X connect 2 0 6 0;
#X connect 2 1 5 0;
#X connect 3 0 2 0;
#X connect 3 1 1 0;
#X connect 4 0 0 0;
#X connect 4 1 0 1;
#X connect 5 0 11 0;
#X connect 5 1 6 1;
#X connect 6 0 7 0;
#X connect 7 0 16 0;
#X connect 7 1 8 0;
#X connect 9 0 3 0;
#X connect 11 0 12 0;
#X connect 12 0 11 1;
#X connect 12 0 16 1;
#X connect 13 0 10 0;
#X connect 13 1 14 0;
#X connect 15 0 11 1;
#X connect 16 0 18 0;
#X connect 17 0 13 0;
