#N canvas -1304 139 831 670 10;
#X obj 328 245 t f f;
#X obj 328 296 t f b;
#X obj 328 343 *;
#X obj 291 101 bng 15 250 50 0 empty empty empty 17 7 0 10 -262144
-1 -1;
#X floatatom 328 403 5 0 0 0 - - -;
#X floatatom 179 326 5 0 0 0 - - -;
#X floatatom 80 448 5 0 0 0 - - -;
#X obj 99 398 +;
#X obj 99 355 t f b;
#X obj 126 379 v velocity;
#X obj 355 317 v acceleration;
#X obj 99 258 t f b;
#X obj 99 305 *;
#X obj 126 279 v acceleration;
#X floatatom 48 326 5 0 0 0 - - -;
#X obj 513 148 v velocity;
#X obj 605 145 v acceleration;
#X msg 513 115 0;
#X obj 99 422 v velocity;
#X obj 236 255 t f b;
#X obj 236 301 *;
#X obj 251 278 v velocity;
#X obj 328 368 * 0.5;
#X obj 328 271 *;
#X floatatom 383 286 5 0 0 0 - - -;
#X floatatom 377 361 5 0 0 0 - - -;
#X floatatom 285 320 5 0 0 0 - - -;
#X obj 234 501 +;
#X obj 234 454 t f b;
#X obj 261 478 v height;
#X obj 435 149 v height;
#X msg 436 109 300;
#X obj 234 544 v height;
#X floatatom 297 536 5 0 0 0 - - -;
#X obj 303 9 tgl 15 0 empty empty empty 17 7 0 10 -262144 -1 -1 0 1
;
#X obj 512 302 v height;
#X obj 512 330 < 0;
#X obj 512 354 sel 1;
#X obj 512 424 v velocity;
#X obj 512 543 v velocity;
#X obj 512 447 * -1;
#X obj 466 31 bng 15 250 50 0 empty empty empty 17 7 0 10 -262144 -1
-1;
#X msg 605 108 -9.8;
#X obj 254 397 +;
#X obj 512 472 t f b;
#X obj 539 498 v bounce;
#X obj 512 521 *;
#X obj 711 146 v bounce;
#X msg 711 109 0.9;
#X obj 582 447 v height;
#X obj 512 381 t b b b;
#X msg 582 424 0;
#X obj 299 50 metro 10;
#X obj 284 194 t f f f b;
#X obj 365 144 v time;
#X msg 362 107 0.1;
#X obj 291 144 v time;
#X connect 0 0 23 0;
#X connect 0 1 23 1;
#X connect 1 0 2 0;
#X connect 1 1 10 0;
#X connect 2 0 22 0;
#X connect 2 0 25 0;
#X connect 3 0 56 0;
#X connect 7 0 18 0;
#X connect 7 0 6 0;
#X connect 8 0 7 0;
#X connect 8 1 9 0;
#X connect 9 0 7 1;
#X connect 10 0 2 1;
#X connect 11 0 12 0;
#X connect 11 1 13 0;
#X connect 12 0 14 0;
#X connect 12 0 8 0;
#X connect 13 0 12 1;
#X connect 17 0 15 0;
#X connect 19 0 20 0;
#X connect 19 1 21 0;
#X connect 20 0 5 0;
#X connect 20 0 43 0;
#X connect 21 0 20 1;
#X connect 21 0 26 0;
#X connect 22 0 4 0;
#X connect 22 0 43 1;
#X connect 23 0 1 0;
#X connect 23 0 24 0;
#X connect 27 0 32 0;
#X connect 27 0 33 0;
#X connect 28 0 27 0;
#X connect 28 1 29 0;
#X connect 29 0 27 1;
#X connect 31 0 30 0;
#X connect 34 0 52 0;
#X connect 35 0 36 0;
#X connect 36 0 37 0;
#X connect 37 0 50 0;
#X connect 38 0 40 0;
#X connect 40 0 44 0;
#X connect 41 0 42 0;
#X connect 41 0 17 0;
#X connect 41 0 31 0;
#X connect 41 0 48 0;
#X connect 41 0 55 0;
#X connect 42 0 16 0;
#X connect 43 0 28 0;
#X connect 44 0 46 0;
#X connect 44 1 45 0;
#X connect 45 0 46 1;
#X connect 46 0 39 0;
#X connect 48 0 47 0;
#X connect 50 0 38 0;
#X connect 51 0 49 0;
#X connect 52 0 3 0;
#X connect 53 0 11 0;
#X connect 53 1 19 0;
#X connect 53 2 0 0;
#X connect 53 3 35 0;
#X connect 55 0 54 0;
#X connect 56 0 53 0;
